<svg width="34" height="34" viewBox="0 0 34 34" fill="none" xmlns="http://www.w3.org/2000/svg">
<circle cx="17.2787" cy="17.2788" r="15.9107" stroke="black" stroke-width="1.17857"/>
<path d="M12.8478 15.6622C14.0195 17.9648 15.9072 19.8525 18.2098 21.0242L19.9999 19.2341C20.2277 19.0063 20.545 18.9412 20.8298 19.0307C21.7411 19.3318 22.7175 19.4945 23.7346 19.4945C23.9504 19.4945 24.1574 19.5802 24.3099 19.7328C24.4625 19.8854 24.5483 20.0924 24.5483 20.3082V23.156C24.5483 23.3718 24.4625 23.5787 24.3099 23.7313C24.1574 23.8839 23.9504 23.9697 23.7346 23.9697C20.0661 23.9697 16.5478 22.5123 13.9537 19.9183C11.3597 17.3242 9.90234 13.8059 9.90234 10.1374C9.90234 9.9216 9.98807 9.71464 10.1407 9.56205C10.2933 9.40946 10.5002 9.32373 10.716 9.32373H13.5638C13.7796 9.32373 13.9866 9.40946 14.1392 9.56205C14.2918 9.71464 14.3775 9.9216 14.3775 10.1374C14.3775 11.1545 14.5402 12.1309 14.8413 13.0422C14.9308 13.3269 14.8657 13.6443 14.6379 13.8721L12.8478 15.6622Z" fill="black"/>
</svg>
