<svg width="239" height="63" viewBox="0 0 239 63" fill="none" xmlns="http://www.w3.org/2000/svg">
<path d="M14.7615 4.89138V7.15031H6.9594C4.05221 7.15031 1.69548 9.50704 1.69548 12.4142V55.1757C1.69548 58.0829 4.05221 60.4396 6.9594 60.4396H38.1763C41.1156 60.4396 43.4855 58.0325 43.4396 55.0935L42.7714 12.332C42.7265 9.45722 40.3832 7.15031 37.5081 7.15031H29.2487V4.89138C29.2487 3.29622 27.9556 2.00309 26.3604 2.00309H17.6498C16.0546 2.00309 14.7615 3.29622 14.7615 4.89138Z" stroke="#030303" stroke-width="2.60905"/>
<path d="M62.359 18.961V16.7439H65.7445C66.3238 16.7439 66.8131 16.6541 67.2126 16.4743C67.632 16.2945 67.9516 16.0449 68.1713 15.7253C68.391 15.3857 68.5009 14.9763 68.5009 14.4969C68.5009 13.7779 68.2612 13.2386 67.7818 12.8791C67.3025 12.5195 66.6234 12.3398 65.7445 12.3398H63.6473V25.4624H66.2239C66.883 25.4624 67.4722 25.3825 67.9916 25.2227C68.5109 25.043 68.9203 24.7633 69.2199 24.3838C69.5395 23.9844 69.6993 23.4451 69.6993 22.766C69.6993 22.3266 69.6094 21.9471 69.4296 21.6275C69.2499 21.3079 69.0002 21.0482 68.6806 20.8485C68.3611 20.6488 67.9916 20.509 67.5721 20.4291C67.1726 20.3292 66.7232 20.2793 66.2239 20.2793H62.359V17.5229H66.7931C67.8118 17.5229 68.8005 17.6328 69.7592 17.8525C70.7179 18.0722 71.5868 18.4317 72.3658 18.9311C73.1447 19.4104 73.7639 20.0296 74.2233 20.7886C74.7027 21.5276 74.9423 22.4264 74.9423 23.485C74.9423 24.8832 74.6028 26.0117 73.9237 26.8705C73.2646 27.7294 72.3258 28.3686 71.1074 28.788C69.889 29.1875 68.4509 29.3872 66.7931 29.3872H58.584V8.41498H66.2838C67.7419 8.41498 69.0202 8.61471 70.1187 9.01418C71.2373 9.39368 72.1161 9.9829 72.7552 10.7818C73.4144 11.5608 73.7439 12.5495 73.7439 13.7479C73.7439 14.8465 73.4144 15.7852 72.7552 16.5642C72.1161 17.3432 71.2373 17.9424 70.1187 18.3618C69.0202 18.7613 67.7419 18.961 66.2838 18.961H62.359ZM81.9293 25.3426L82.2888 21.4777H92.685L93.0146 25.3426H81.9293ZM87.412 16.1148L84.4759 22.8858L84.7156 23.9943L82.109 29.3872H76.3866L87.412 7.09672L98.4674 29.3872H92.715L90.1983 24.2041L90.3781 22.9158L87.412 16.1148ZM97.0542 12.939V8.41498H113.652V12.939H107.87V29.3872H102.807V12.939H97.0542ZM115.348 12.939V8.41498H131.946V12.939H126.164V29.3872H121.101V12.939H115.348ZM140.076 19.8898H145.319L151.88 29.3872H145.948L140.076 19.8898ZM134.833 8.41498H139.896V29.3872H134.833V8.41498ZM138.008 12.6993V8.41498H142.473C144.27 8.41498 145.768 8.70459 146.967 9.28383C148.165 9.86306 149.074 10.672 149.693 11.7106C150.312 12.7293 150.622 13.9177 150.622 15.2759C150.622 16.6141 150.312 17.8025 149.693 18.8412C149.074 19.8598 148.165 20.6588 146.967 21.238C145.768 21.8172 144.27 22.1068 142.473 22.1068H138.008V18.182H142.113C142.792 18.182 143.371 18.0822 143.851 17.8824C144.35 17.6627 144.73 17.3531 144.989 16.9537C145.249 16.5342 145.379 16.0349 145.379 15.4557C145.379 14.8764 145.249 14.3871 144.989 13.9876C144.73 13.5682 144.35 13.2486 143.851 13.0289C143.371 12.8092 142.792 12.6993 142.113 12.6993H138.008ZM158.179 29.3872V25.2227H168.755V29.3872H158.179ZM158.179 12.5795V8.41498H168.755V12.5795H158.179ZM158.179 20.3991V16.3245H168.156V20.3991H158.179ZM154.824 8.41498H159.677V29.3872H154.824V8.41498ZM183.865 21.8072V17.9124H194.471C194.571 19.5902 194.401 21.1581 193.962 22.6162C193.522 24.0742 192.843 25.3625 191.925 26.4811C191.006 27.5996 189.857 28.4784 188.479 29.1176C187.101 29.7367 185.523 30.0463 183.745 30.0463C182.068 30.0463 180.53 29.7867 179.131 29.2674C177.733 28.7281 176.525 27.9691 175.506 26.9904C174.488 25.9917 173.689 24.8133 173.109 23.4551C172.55 22.0769 172.271 20.5589 172.271 18.9011C172.271 17.2433 172.56 15.7453 173.139 14.407C173.719 13.0488 174.538 11.8904 175.596 10.9316C176.655 9.97291 177.893 9.23389 179.311 8.71458C180.729 8.19527 182.267 7.93561 183.925 7.93561C185.403 7.93561 186.731 8.14533 187.91 8.56478C189.088 8.98422 190.127 9.57344 191.026 10.3324C191.945 11.0715 192.733 11.9303 193.393 12.909L188.899 15.2459C188.419 14.407 187.77 13.718 186.951 13.1787C186.152 12.6194 185.144 12.3398 183.925 12.3398C182.767 12.3398 181.698 12.5994 180.719 13.1187C179.761 13.6381 178.992 14.3871 178.412 15.3658C177.853 16.3245 177.574 17.5029 177.574 18.9011C177.574 20.2793 177.843 21.4777 178.382 22.4963C178.942 23.495 179.691 24.274 180.63 24.8332C181.588 25.3725 182.687 25.6422 183.925 25.6422C184.684 25.6422 185.373 25.5523 185.992 25.3725C186.612 25.1728 187.141 24.9031 187.58 24.5636C188.02 24.2041 188.389 23.7946 188.689 23.3352C189.008 22.8559 189.258 22.3465 189.438 21.8072H183.865ZM201.819 29.3872V25.2227H212.395V29.3872H201.819ZM201.819 12.5795V8.41498H212.395V12.5795H201.819ZM201.819 20.3991V16.3245H211.796V20.3991H201.819ZM198.463 8.41498H203.317V29.3872H198.463V8.41498ZM231.579 8.41498H236.463V30.4358L221.962 17.5828V29.3872H217.108V7.36636L231.579 20.2193V8.41498Z" fill="#78A401"/>
<path d="M59.2321 54.7788V52.8054H65.9303V54.7788H59.2321ZM59.2321 43.4698V41.4964H65.9303V43.4698H59.2321ZM59.2321 48.6309V46.6955H65.5508V48.6309H59.2321ZM57.847 41.4964H60.0481V54.7788H57.847V41.4964ZM74.1377 46.0504H76.4336L73.3028 50.2818L76.6234 54.7788H74.3274L72.2212 51.7808L70.1529 54.7788H67.8L71.1396 50.2818L67.9898 46.0504H70.3427L72.2212 48.7827L74.1377 46.0504ZM77.3082 46.0504H82.2607V47.853H77.3082V46.0504ZM78.7693 43.0144H80.7996V54.7788H78.7693V43.0144ZM88.062 54.9686C87.1765 54.9686 86.3922 54.7788 85.7091 54.3993C85.0386 54.0198 84.52 53.4885 84.1531 52.8054C83.7863 52.1223 83.6029 51.3254 83.6029 50.4146C83.6029 49.4911 83.7863 48.6879 84.1531 48.0048C84.5326 47.3217 85.0639 46.7967 85.747 46.4299C86.4301 46.0504 87.2334 45.8606 88.1568 45.8606C89.0803 45.8606 89.8646 46.0377 90.5097 46.3919C91.1549 46.7461 91.6482 47.2584 91.9898 47.9289C92.3439 48.5867 92.521 49.3836 92.521 50.3197C92.521 50.4209 92.5147 50.5284 92.5021 50.6423C92.5021 50.7561 92.4957 50.8384 92.4831 50.889H84.8172V49.4848H90.7374L90.1112 50.3577C90.1492 50.2818 90.1871 50.1806 90.2251 50.0541C90.2757 49.9149 90.301 49.8011 90.301 49.7125C90.301 49.2445 90.2061 48.8397 90.0164 48.4981C89.8393 48.1566 89.5863 47.8909 89.2574 47.7012C88.9411 47.5114 88.5679 47.4166 88.1379 47.4166C87.6192 47.4166 87.1765 47.5304 86.8096 47.7581C86.4428 47.9858 86.1645 48.3147 85.9747 48.7448C85.785 49.1749 85.6838 49.7062 85.6711 50.3387C85.6711 50.9712 85.766 51.5088 85.9557 51.9516C86.1455 52.3816 86.4238 52.7105 86.7906 52.9382C87.1701 53.1659 87.6255 53.2798 88.1568 53.2798C88.7134 53.2798 89.2004 53.1659 89.6179 52.9382C90.0353 52.7105 90.3832 52.3627 90.6615 51.8946L92.4262 52.6157C91.9708 53.4 91.3826 53.9882 90.6615 54.3803C89.9405 54.7725 89.0739 54.9686 88.062 54.9686ZM100.687 49.4658C100.687 48.8207 100.554 48.3337 100.288 48.0048C100.022 47.6759 99.6114 47.5114 99.0548 47.5114C98.6753 47.5114 98.3401 47.5937 98.0491 47.7581C97.7582 47.9099 97.5305 48.1376 97.366 48.4412C97.2016 48.7321 97.1193 49.0737 97.1193 49.4658V54.7788H95.0701V46.0504H97.1193V47.3976C97.3976 46.8789 97.7518 46.4931 98.1819 46.2401C98.6247 45.9871 99.1497 45.8606 99.7568 45.8606C100.744 45.8606 101.496 46.1642 102.015 46.7714C102.534 47.366 102.793 48.1882 102.793 49.2381V54.7788H100.687V49.4658ZM112.568 39.9784H114.636V54.7788H112.568V39.9784ZM105.339 50.4146C105.339 49.4532 105.535 48.6373 105.927 47.9668C106.319 47.2837 106.838 46.7651 107.483 46.4109C108.141 46.044 108.843 45.8606 109.589 45.8606C110.323 45.8606 110.962 46.044 111.506 46.4109C112.062 46.7777 112.499 47.3027 112.815 47.9858C113.144 48.6562 113.308 49.4658 113.308 50.4146C113.308 51.3507 113.144 52.1603 112.815 52.8434C112.499 53.5265 112.062 54.0514 111.506 54.4183C110.962 54.7851 110.323 54.9686 109.589 54.9686C108.843 54.9686 108.141 54.7915 107.483 54.4373C106.838 54.0704 106.319 53.5454 105.927 52.8623C105.535 52.1793 105.339 51.3633 105.339 50.4146ZM107.464 50.4146C107.464 50.9965 107.584 51.4962 107.824 51.9136C108.065 52.331 108.381 52.6473 108.773 52.8623C109.178 53.0774 109.614 53.1849 110.082 53.1849C110.475 53.1849 110.86 53.0774 111.24 52.8623C111.632 52.6473 111.948 52.3374 112.189 51.9326C112.442 51.5151 112.568 51.0091 112.568 50.4146C112.568 49.82 112.442 49.3204 112.189 48.9156C111.948 48.4981 111.632 48.1819 111.24 47.9668C110.86 47.7518 110.475 47.6443 110.082 47.6443C109.614 47.6443 109.178 47.7518 108.773 47.9668C108.381 48.1819 108.065 48.4981 107.824 48.9156C107.584 49.333 107.464 49.8327 107.464 50.4146ZM121.564 54.9686C120.679 54.9686 119.895 54.7788 119.212 54.3993C118.541 54.0198 118.022 53.4885 117.656 52.8054C117.289 52.1223 117.105 51.3254 117.105 50.4146C117.105 49.4911 117.289 48.6879 117.656 48.0048C118.035 47.3217 118.566 46.7967 119.25 46.4299C119.933 46.0504 120.736 45.8606 121.659 45.8606C122.583 45.8606 123.367 46.0377 124.012 46.3919C124.657 46.7461 125.151 47.2584 125.492 47.9289C125.846 48.5867 126.024 49.3836 126.024 50.3197C126.024 50.4209 126.017 50.5284 126.005 50.6423C126.005 50.7561 125.998 50.8384 125.986 50.889H118.32V49.4848H124.24L123.614 50.3577C123.652 50.2818 123.69 50.1806 123.728 50.0541C123.778 49.9149 123.804 49.8011 123.804 49.7125C123.804 49.2445 123.709 48.8397 123.519 48.4981C123.342 48.1566 123.089 47.8909 122.76 47.7012C122.444 47.5114 122.07 47.4166 121.64 47.4166C121.122 47.4166 120.679 47.5304 120.312 47.7581C119.945 47.9858 119.667 48.3147 119.477 48.7448C119.287 49.1749 119.186 49.7062 119.174 50.3387C119.174 50.9712 119.269 51.5088 119.458 51.9516C119.648 52.3816 119.926 52.7105 120.293 52.9382C120.673 53.1659 121.128 53.2798 121.659 53.2798C122.216 53.2798 122.703 53.1659 123.12 52.9382C123.538 52.7105 123.886 52.3627 124.164 51.8946L125.929 52.6157C125.473 53.4 124.885 53.9882 124.164 54.3803C123.443 54.7725 122.576 54.9686 121.564 54.9686ZM135.138 39.9784H137.206V54.7788H135.138V39.9784ZM127.908 50.4146C127.908 49.4532 128.105 48.6373 128.497 47.9668C128.889 47.2837 129.407 46.7651 130.053 46.4109C130.71 46.044 131.412 45.8606 132.159 45.8606C132.893 45.8606 133.531 46.044 134.075 46.4109C134.632 46.7777 135.068 47.3027 135.385 47.9858C135.713 48.6562 135.878 49.4658 135.878 50.4146C135.878 51.3507 135.713 52.1603 135.385 52.8434C135.068 53.5265 134.632 54.0514 134.075 54.4183C133.531 54.7851 132.893 54.9686 132.159 54.9686C131.412 54.9686 130.71 54.7915 130.053 54.4373C129.407 54.0704 128.889 53.5454 128.497 52.8623C128.105 52.1793 127.908 51.3633 127.908 50.4146ZM130.034 50.4146C130.034 50.9965 130.154 51.4962 130.394 51.9136C130.635 52.331 130.951 52.6473 131.343 52.8623C131.748 53.0774 132.184 53.1849 132.652 53.1849C133.044 53.1849 133.43 53.0774 133.81 52.8623C134.202 52.6473 134.518 52.3374 134.758 51.9326C135.011 51.5151 135.138 51.0091 135.138 50.4146C135.138 49.82 135.011 49.3204 134.758 48.9156C134.518 48.4981 134.202 48.1819 133.81 47.9668C133.43 47.7518 133.044 47.6443 132.652 47.6443C132.184 47.6443 131.748 47.7518 131.343 47.9668C130.951 48.1819 130.635 48.4981 130.394 48.9156C130.154 49.333 130.034 49.8327 130.034 50.4146ZM146.792 41.4964H149.031V52.7675H154.306V54.7788H146.792V41.4964ZM156.273 42.578C156.273 42.2238 156.4 41.9265 156.653 41.6861C156.919 41.4458 157.222 41.3256 157.564 41.3256C157.931 41.3256 158.234 41.4458 158.474 41.6861C158.727 41.9265 158.854 42.2238 158.854 42.578C158.854 42.9195 158.727 43.2168 158.474 43.4698C158.234 43.7101 157.931 43.8303 157.564 43.8303C157.222 43.8303 156.919 43.7101 156.653 43.4698C156.4 43.2168 156.273 42.9195 156.273 42.578ZM156.558 46.0504H158.569V54.7788H156.558V46.0504ZM161.261 46.0504H166.271V47.853H161.261V46.0504ZM166.043 42.1795C165.917 41.9771 165.771 41.8443 165.607 41.781C165.455 41.7178 165.297 41.6861 165.132 41.6861C164.943 41.6861 164.778 41.7367 164.639 41.8379C164.512 41.9391 164.411 42.1036 164.335 42.3313C164.259 42.559 164.221 42.8563 164.221 43.2231V54.7788H162.21V42.8246C162.21 42.1415 162.318 41.5786 162.533 41.1359C162.76 40.6805 163.083 40.3389 163.5 40.1112C163.918 39.8709 164.43 39.7507 165.037 39.7507C165.379 39.7507 165.676 39.795 165.929 39.8835C166.182 39.9721 166.397 40.0796 166.574 40.2061C166.764 40.3326 166.91 40.4591 167.011 40.5856L166.043 42.1795ZM172.226 54.9686C171.34 54.9686 170.556 54.7788 169.873 54.3993C169.203 54.0198 168.684 53.4885 168.317 52.8054C167.95 52.1223 167.767 51.3254 167.767 50.4146C167.767 49.4911 167.95 48.6879 168.317 48.0048C168.697 47.3217 169.228 46.7967 169.911 46.4299C170.594 46.0504 171.397 45.8606 172.321 45.8606C173.244 45.8606 174.029 46.0377 174.674 46.3919C175.319 46.7461 175.812 47.2584 176.154 47.9289C176.508 48.5867 176.685 49.3836 176.685 50.3197C176.685 50.4209 176.679 50.5284 176.666 50.6423C176.666 50.7561 176.66 50.8384 176.647 50.889H168.981V49.4848H174.901L174.275 50.3577C174.313 50.2818 174.351 50.1806 174.389 50.0541C174.44 49.9149 174.465 49.8011 174.465 49.7125C174.465 49.2445 174.37 48.8397 174.18 48.4981C174.003 48.1566 173.75 47.8909 173.421 47.7012C173.105 47.5114 172.732 47.4166 172.302 47.4166C171.783 47.4166 171.34 47.5304 170.974 47.7581C170.607 47.9858 170.328 48.3147 170.139 48.7448C169.949 49.1749 169.848 49.7062 169.835 50.3387C169.835 50.9712 169.93 51.5088 170.12 51.9516C170.309 52.3816 170.588 52.7105 170.955 52.9382C171.334 53.1659 171.789 53.2798 172.321 53.2798C172.877 53.2798 173.364 53.1659 173.782 52.9382C174.199 52.7105 174.547 52.3627 174.825 51.8946L176.59 52.6157C176.135 53.4 175.547 53.9882 174.825 54.3803C174.104 54.7725 173.238 54.9686 172.226 54.9686ZM185.8 53.8111C185.8 53.4442 185.927 53.1343 186.18 52.8813C186.445 52.6157 186.762 52.4828 187.129 52.4828C187.521 52.4828 187.843 52.6157 188.096 52.8813C188.349 53.1343 188.476 53.4442 188.476 53.8111C188.476 54.1653 188.349 54.4752 188.096 54.7409C187.843 55.0065 187.521 55.1393 187.129 55.1393C186.762 55.1393 186.445 55.0065 186.18 54.7409C185.927 54.4752 185.8 54.1653 185.8 53.8111ZM192.249 53.8111C192.249 53.4442 192.375 53.1343 192.628 52.8813C192.894 52.6157 193.21 52.4828 193.577 52.4828C193.969 52.4828 194.292 52.6157 194.545 52.8813C194.798 53.1343 194.924 53.4442 194.924 53.8111C194.924 54.1653 194.798 54.4752 194.545 54.7409C194.292 55.0065 193.969 55.1393 193.577 55.1393C193.21 55.1393 192.894 55.0065 192.628 54.7409C192.375 54.4752 192.249 54.1653 192.249 53.8111ZM198.697 53.8111C198.697 53.4442 198.824 53.1343 199.077 52.8813C199.342 52.6157 199.659 52.4828 200.026 52.4828C200.418 52.4828 200.74 52.6157 200.993 52.8813C201.246 53.1343 201.373 53.4442 201.373 53.8111C201.373 54.1653 201.246 54.4752 200.993 54.7409C200.74 55.0065 200.418 55.1393 200.026 55.1393C199.659 55.1393 199.342 55.0065 199.077 54.7409C198.824 54.4752 198.697 54.1653 198.697 53.8111Z" fill="black"/>
</svg>
