<svg width="39" height="45" viewBox="0 0 39 45" fill="none" xmlns="http://www.w3.org/2000/svg">
<path d="M34.6199 34.1807L31.1676 4.63065C30.9211 2.54283 29.0305 1.04684 26.9427 1.28521L4.60136 3.89088C2.51354 4.13747 1.01754 6.02801 1.25591 8.11583L4.7 37.6659C4.94659 39.7537 6.83714 41.2497 8.92496 41.0113L31.2745 38.4057C33.3623 38.1591 34.8583 36.2685 34.6199 34.1807Z" fill="#AAFD33"/>
<path d="M8.39886 41.5373C7.4618 41.5373 6.54941 41.225 5.80141 40.6332C4.92189 39.9345 4.36295 38.9399 4.23965 37.822L0.762692 8.08288C0.631176 6.96499 0.943527 5.87176 1.64221 4.99225C2.34089 4.11273 3.33548 3.55379 4.45337 3.43049L26.9837 0.800168C28.0934 0.668651 29.1949 0.981003 30.0744 1.67968C30.9539 2.37836 31.5128 3.37296 31.6361 4.49084L35.1049 34.23C35.2364 35.3478 34.924 36.4411 34.2254 37.3206C33.5267 38.2001 32.5321 38.7591 31.4142 38.8823L8.88382 41.5127C8.72765 41.5209 8.56325 41.5373 8.39886 41.5373ZM27.4769 1.73722C27.3536 1.73722 27.2221 1.74544 27.0988 1.76188L4.56022 4.38399C3.70537 4.48262 2.94093 4.91827 2.40665 5.59229C1.87236 6.26631 1.63399 7.11295 1.73262 7.9678L5.20137 37.7069C5.3 38.5618 5.72743 39.3344 6.40967 39.8687C7.08369 40.403 7.93033 40.6414 8.78519 40.5427L31.3156 37.9124C32.1704 37.8138 32.9431 37.3863 33.4774 36.7123C34.0117 36.0383 34.25 35.1917 34.1514 34.3368L30.6744 4.58948C30.5758 3.73462 30.1484 2.96197 29.4661 2.42768C28.899 1.97559 28.2003 1.73722 27.4769 1.73722Z" fill="#000102"/>
<path d="M38.2449 41.2168C38.2449 43.0005 36.7982 44.4471 35.0063 44.4471H11.3663C9.58258 44.4471 8.12769 43.0005 8.12769 41.2168V10.3104C8.12769 8.52676 9.57436 7.08008 11.3581 7.08008H31.2335L38.2449 14.0915V41.2168Z" fill="#F4F6F8"/>
<path d="M38.2449 39.7126V41.2168C38.2449 43.0005 36.7982 44.4472 35.0063 44.4472H11.3662C9.58254 44.4472 8.13586 43.0005 8.13586 41.2168V39.7043C8.13586 41.488 9.58254 42.9347 11.3662 42.9347H35.0145C36.7982 42.9429 38.2449 41.4963 38.2449 39.7126Z" fill="#D7DADF"/>
<path d="M35.0144 44.932H11.3661C9.31119 44.932 7.64258 43.2633 7.64258 41.2166V10.3103C7.64258 8.26358 9.31119 6.59497 11.3579 6.59497H31.2333C31.3648 6.59497 31.4881 6.64429 31.5785 6.73471L38.59 13.7462C38.6804 13.8366 38.7297 13.9599 38.7297 14.0914V41.2166C38.7297 43.2716 37.0611 44.932 35.0144 44.932ZM11.3579 7.57312C9.84548 7.57312 8.61251 8.80609 8.61251 10.3185V41.2248C8.61251 42.7373 9.84548 43.9703 11.3661 43.9703H35.0144C36.5268 43.9703 37.768 42.7373 37.768 41.2248V14.2969L31.0443 7.57312H11.3579Z" fill="#000102"/>
<path d="M38.2449 14.0914H32.9268C31.9979 14.0914 31.2417 13.3352 31.2417 12.4063V7.08813L38.2449 14.0914Z" fill="white"/>
<path d="M38.2449 14.5764H32.9267C31.7266 14.5764 30.7567 13.5982 30.7567 12.4064V7.08817C30.7567 6.8909 30.8718 6.71828 31.0526 6.63609C31.2335 6.56211 31.439 6.60321 31.5787 6.74294L38.5902 13.7544C38.7299 13.8941 38.771 14.0996 38.697 14.2805C38.6148 14.4613 38.4422 14.5764 38.2449 14.5764ZM31.7184 8.25538V12.4064C31.7184 13.0722 32.2609 13.6064 32.9185 13.6064H37.0695L31.7184 8.25538Z" fill="#000102"/>
<path d="M31.6456 22.1681C31.6456 24.3152 30.7795 27.2554 29.3596 29.766C28.5052 31.2785 26.6417 33.2212 26.6417 34.9559H22.8888V14.1064C27.7259 14.1064 31.6456 17.5987 31.6456 22.1681Z" fill="white"/>
<path d="M22.8888 21.1953H26.6417V26.1992H22.8888V21.1953Z" fill="#AAFD33"/>
<path d="M14.1321 22.1825C14.1321 24.3296 14.9982 27.2698 16.418 29.7805C17.2724 31.2929 19.1359 33.2356 19.1359 34.9703H22.8888V14.1208C18.0518 14.1208 14.1321 17.6131 14.1321 22.1825Z" fill="#AAFD33"/>
<path d="M27.2959 33.8868L26.5207 33.5799C26.6331 33.3004 26.7631 33.0284 26.9102 32.7655L27.6403 33.1687C27.5105 33.4006 27.3955 33.6404 27.2959 33.8868ZM28.0644 32.4657L27.3643 32.0128C27.5207 31.771 27.6841 31.5316 27.8484 31.2964L28.5327 31.7726C28.3742 32.0007 28.2158 32.2322 28.0644 32.4657ZM29.0185 31.0754L28.3334 30.6001C28.4923 30.373 28.6462 30.1425 28.795 29.9087L29.5009 30.3528C29.3467 30.598 29.1858 30.839 29.0185 31.0754ZM29.94 29.5905L29.2045 29.1969C29.3346 28.9528 29.4597 28.7057 29.5797 28.4555L30.3303 28.8145C30.2067 29.0764 30.0766 29.3352 29.94 29.5905ZM30.6889 28.0239L29.9213 27.6974C30.0305 27.4414 30.1339 27.1828 30.2307 26.9252L31.0113 27.217C30.9104 27.4873 30.8029 27.7562 30.6889 28.0239ZM32.0275 22.9884L31.196 22.9183C31.2177 22.6644 31.2285 22.4179 31.2285 22.1844V22.1081L32.0625 22.1014V22.1848C32.0625 22.4388 32.0508 22.7094 32.0275 22.9884ZM31.1764 21.305C31.1451 21.0385 31.0988 20.7739 31.0375 20.5127L31.8498 20.323C31.9177 20.6137 31.9695 20.908 32.005 21.2045L31.1764 21.305ZM30.8115 19.7446C30.7218 19.4922 30.6179 19.2451 30.5005 19.0044L31.251 18.6396C31.3821 18.9082 31.4979 19.184 31.598 19.4656L30.8115 19.7446ZM30.1093 18.3039C29.966 18.0773 29.8107 17.8584 29.644 17.6484L30.2974 17.1297C30.4823 17.3637 30.6549 17.6073 30.8145 17.8594L30.1093 18.3039ZM29.1094 17.045C28.9208 16.8531 28.7225 16.6711 28.5152 16.4996L29.0468 15.8578C29.276 16.0476 29.4954 16.249 29.704 16.4612L29.1094 17.045ZM27.8676 16.0155C27.6462 15.8666 27.4131 15.7236 27.1746 15.5985L27.5711 14.8646C27.833 15.0064 28.0894 15.1611 28.333 15.3233L27.8676 16.0155ZM26.444 15.2465C26.1996 15.1427 25.9436 15.0485 25.6842 14.9663L25.9369 14.1711C26.2213 14.2616 26.502 14.365 26.7709 14.4797L26.444 15.2465ZM24.8999 14.7557C24.6355 14.6971 24.3687 14.6505 24.1001 14.6161L24.2068 13.7883C24.4987 13.8267 24.7944 13.878 25.0804 13.9414L24.8999 14.7557Z" fill="black"/>
<path d="M26.3264 36.6091H19.451C19.2299 36.6091 19.0177 36.5212 18.8613 36.3648C18.7049 36.2084 18.6171 35.9963 18.6171 35.7751V35.748C18.6183 35.6415 18.6411 35.5364 18.6842 35.439C18.7273 35.3416 18.7898 35.2539 18.8677 35.1814C18.9457 35.1089 19.0377 35.0529 19.1379 35.017C19.2382 34.9811 19.3447 34.9659 19.451 34.9724H26.3264C26.4327 34.9659 26.5392 34.9811 26.6395 35.017C26.7397 35.0529 26.8317 35.1089 26.9097 35.1814C26.9876 35.2539 27.0501 35.3416 27.0932 35.439C27.1363 35.5364 27.1591 35.6415 27.1603 35.748V35.7772C27.1598 35.998 27.0717 36.2096 26.9153 36.3656C26.759 36.5215 26.5472 36.6091 26.3264 36.6091Z" fill="#292929"/>
<path d="M26.4332 36.6094H19.3444C18.8838 36.6094 18.5104 36.9828 18.5104 37.4434V37.4725C18.5104 37.9331 18.8838 38.3065 19.3444 38.3065H26.4332C26.8938 38.3065 27.2671 37.9331 27.2671 37.4725V37.4434C27.2671 36.9828 26.8938 36.6094 26.4332 36.6094Z" fill="#292929"/>
<path d="M22.1799 17.9069L21.9948 18.7768C21.7252 18.826 21.4602 18.8975 21.2025 18.9907L20.605 18.3235C20.1691 18.5112 19.7578 18.7515 19.3803 19.039L19.6567 19.8809C19.4464 20.0592 19.2512 20.2544 19.0729 20.4647L18.2314 20.1883C17.9438 20.5656 17.7033 20.9768 17.5155 21.4125L18.1827 22.0105C18.0895 22.2682 18.0179 22.5332 17.9687 22.8028L17.0981 22.9858C17.0347 23.4577 17.0347 23.9359 17.0981 24.4078L17.9687 24.5908C18.018 24.8604 18.0895 25.1254 18.1827 25.3831L17.5155 25.9807C17.7032 26.4165 17.9435 26.8278 18.231 27.2053L19.0729 26.9289C19.2512 27.1392 19.4464 27.3344 19.6567 27.5127L19.3803 28.3542C19.7576 28.6418 20.1688 28.8823 20.6045 29.0701L21.2025 28.4029C21.4602 28.4961 21.7252 28.5677 21.9948 28.6169L22.1778 29.4875C22.4136 29.5177 22.6511 29.5336 22.8888 29.5351V17.8594C22.6518 17.8609 22.415 17.8768 22.1799 17.9069Z" fill="#292929"/>
<path d="M22.8888 27.0332C22.004 27.0332 21.1555 26.6817 20.5299 26.0561C19.9043 25.4305 19.5529 24.582 19.5529 23.6972C19.5529 22.8125 19.9043 21.964 20.5299 21.3384C21.1555 20.7128 22.004 20.3613 22.8888 20.3613" fill="#F7EDD3"/>
<path d="M25.3907 18.2764C25.8513 18.2764 26.2247 17.903 26.2247 17.4424C26.2247 16.9818 25.8513 16.6084 25.3907 16.6084C24.9301 16.6084 24.5568 16.9818 24.5568 17.4424C24.5568 17.903 24.9301 18.2764 25.3907 18.2764Z" fill="#AAFD33"/>
<path d="M28.7267 20.3613C29.1873 20.3613 29.5607 19.9879 29.5607 19.5273C29.5607 19.0667 29.1873 18.6934 28.7267 18.6934C28.2661 18.6934 27.8927 19.0667 27.8927 19.5273C27.8927 19.9879 28.2661 20.3613 28.7267 20.3613Z" fill="#AAFD33"/>
<path d="M29.9777 25.7822C30.4382 25.7822 30.8116 25.4088 30.8116 24.9482C30.8116 24.4876 30.4382 24.1143 29.9777 24.1143C29.5171 24.1143 29.1437 24.4876 29.1437 24.9482C29.1437 25.4088 29.5171 25.7822 29.9777 25.7822Z" fill="#AAFD33"/>
<path d="M26.2247 30.7859C26.6853 30.7859 27.0587 30.4125 27.0587 29.9519C27.0587 29.4913 26.6853 29.1179 26.2247 29.1179C25.7641 29.1179 25.3907 29.4913 25.3907 29.9519C25.3907 30.4125 25.7641 30.7859 26.2247 30.7859Z" fill="#AAFD33"/>
<path d="M29.9776 23.6972C29.7198 23.6983 29.4686 23.779 29.2584 23.9282C29.0483 24.0775 28.8893 24.2881 28.8034 24.5312H27.0587V22.8632H28.7267C28.8373 22.8632 28.9433 22.8193 29.0215 22.7411C29.0997 22.6629 29.1437 22.5568 29.1437 22.4462V20.7015C29.4219 20.6032 29.6564 20.4096 29.8057 20.1551C29.955 19.9005 30.0095 19.6014 29.9596 19.3106C29.9097 19.0197 29.7586 18.7559 29.533 18.5657C29.3074 18.3755 29.0218 18.2711 28.7267 18.2711C28.4316 18.2711 28.146 18.3755 27.9203 18.5657C27.6947 18.7559 27.5436 19.0197 27.4937 19.3106C27.4438 19.6014 27.4983 19.9005 27.6476 20.1551C27.797 20.4096 28.0315 20.6032 28.3097 20.7015V22.0292H27.0587V21.1953C27.0587 21.0847 27.0148 20.9786 26.9366 20.9004C26.8584 20.8222 26.7523 20.7783 26.6417 20.7783H25.8077V18.6166C26.086 18.5182 26.3205 18.3247 26.4698 18.0701C26.6191 17.8156 26.6736 17.5165 26.6237 17.2256C26.5738 16.9348 26.4227 16.6709 26.1971 16.4807C25.9714 16.2905 25.6858 16.1862 25.3908 16.1862C25.0957 16.1862 24.8101 16.2905 24.5844 16.4807C24.3588 16.6709 24.2077 16.9348 24.1578 17.2256C24.1079 17.5165 24.1624 17.8156 24.3117 18.0701C24.4611 18.3247 24.6955 18.5182 24.9738 18.6166V20.7783H23.3058V14.121C23.3058 14.0104 23.2619 13.9044 23.1837 13.8262C23.1055 13.748 22.9994 13.704 22.8888 13.704C17.7448 13.704 13.7151 17.4286 13.7151 22.1827C13.7151 24.4411 14.6116 27.4313 16.0548 29.9858C16.3142 30.4445 16.6523 30.9265 17.0101 31.4373C17.7669 32.5161 18.6093 33.7308 18.701 34.7853C18.5432 34.897 18.4151 35.0456 18.3278 35.2181C18.2406 35.3907 18.1969 35.582 18.2006 35.7753C18.2018 36.0572 18.2992 36.3302 18.4767 36.5492C18.3545 36.6698 18.2576 36.8135 18.1919 36.9721C18.1262 37.1307 18.0928 37.3008 18.0939 37.4724C18.0939 37.8042 18.2257 38.1224 18.4603 38.357C18.6949 38.5916 19.0131 38.7234 19.3448 38.7234H26.4336C26.6001 38.7224 26.7647 38.6883 26.9179 38.6233C27.0711 38.5582 27.2099 38.4634 27.3263 38.3444C27.4426 38.2253 27.5342 38.0844 27.5957 37.9297C27.6572 37.775 27.6874 37.6097 27.6846 37.4432C27.6845 37.2754 27.6504 37.1093 27.5845 36.955C27.5185 36.8006 27.4221 36.6612 27.301 36.545C27.4805 36.3174 27.5781 36.036 27.5779 35.7461C27.5776 35.5846 27.5446 35.4248 27.4809 35.2764C27.4172 35.128 27.324 34.994 27.2071 34.8825C27.0902 34.7711 26.952 34.6845 26.8007 34.6279C26.6494 34.5714 26.4882 34.5461 26.3269 34.5535H23.3058V26.6161H24.1398V27.8671C24.1398 27.9777 24.1837 28.0837 24.2619 28.1619C24.3401 28.2401 24.4462 28.2841 24.5568 28.2841H25.8077V28.7778C25.5295 28.8761 25.295 29.0697 25.1457 29.3242C24.9964 29.5788 24.9419 29.8779 24.9918 30.1687C25.0417 30.4596 25.1928 30.7234 25.4184 30.9136C25.644 31.1038 25.9296 31.2082 26.2247 31.2082C26.5198 31.2082 26.8054 31.1038 27.031 30.9136C27.2567 30.7234 27.4078 30.4596 27.4577 30.1687C27.5076 29.8779 27.4531 29.5788 27.3037 29.3242C27.1544 29.0697 26.9199 28.8761 26.6417 28.7778V27.8671C26.6417 27.7565 26.5978 27.6504 26.5196 27.5722C26.4414 27.494 26.3353 27.4501 26.2247 27.4501H24.9738V26.6161H26.6417C26.7523 26.6161 26.8584 26.5722 26.9366 26.494C27.0148 26.4158 27.0587 26.3097 27.0587 26.1991V25.3651H28.8034C28.8802 25.5808 29.0148 25.7712 29.1925 25.9155C29.3702 26.0598 29.5842 26.1525 29.811 26.1835C30.0379 26.2144 30.2688 26.1824 30.4787 26.091C30.6886 25.9996 30.8693 25.8522 31.0011 25.665C31.1328 25.4778 31.2106 25.258 31.2259 25.0296C31.2413 24.8011 31.1935 24.5729 31.0878 24.3698C30.9822 24.1667 30.8228 23.9966 30.627 23.8779C30.4312 23.7593 30.2066 23.6968 29.9776 23.6972ZM28.7267 19.1103C28.8091 19.1103 28.8898 19.1348 28.9583 19.1806C29.0269 19.2264 29.0803 19.2915 29.1119 19.3677C29.1435 19.4439 29.1517 19.5278 29.1356 19.6086C29.1195 19.6895 29.0798 19.7638 29.0215 19.8222C28.9632 19.8805 28.8889 19.9202 28.808 19.9363C28.7271 19.9524 28.6433 19.9441 28.5671 19.9125C28.4909 19.881 28.4258 19.8275 28.3799 19.759C28.3341 19.6904 28.3097 19.6098 28.3097 19.5273C28.3097 19.4167 28.3536 19.3106 28.4318 19.2324C28.51 19.1542 28.6161 19.1103 28.7267 19.1103ZM26.4332 37.8894H19.3444C19.2874 37.8885 19.2312 37.8761 19.1791 37.853C19.127 37.8298 19.0801 37.7965 19.0412 37.7548C19.0023 37.7132 18.9722 37.6641 18.9526 37.6106C18.9331 37.5571 18.9245 37.5001 18.9274 37.4432C18.9274 37.3326 18.9714 37.2266 19.0496 37.1484C19.1278 37.0702 19.2338 37.0262 19.3444 37.0262H26.4332C26.4902 37.0272 26.5464 37.0396 26.5985 37.0627C26.6506 37.0858 26.6975 37.1192 26.7364 37.1608C26.7753 37.2025 26.8055 37.2515 26.825 37.305C26.8446 37.3586 26.8531 37.4155 26.8502 37.4724C26.8502 37.583 26.8063 37.6891 26.7281 37.7673C26.6499 37.8455 26.5438 37.8894 26.4332 37.8894ZM26.7435 35.7753C26.7435 35.8859 26.6995 35.9919 26.6213 36.0701C26.5431 36.1483 26.4371 36.1923 26.3265 36.1923H19.4512C19.3942 36.1913 19.338 36.1789 19.2859 36.1558C19.2338 36.1327 19.1869 36.0993 19.148 36.0577C19.1091 36.016 19.0789 35.967 19.0594 35.9135C19.0398 35.8599 19.0313 35.803 19.0342 35.7461C19.0361 35.6945 19.0487 35.6439 19.0712 35.5974C19.0936 35.5509 19.1253 35.5095 19.1645 35.4759C19.2036 35.4422 19.2493 35.417 19.2986 35.4018C19.3479 35.3866 19.3999 35.3817 19.4512 35.3875H26.3265C26.38 35.3825 26.434 35.3889 26.4848 35.4063C26.5357 35.4236 26.5823 35.4515 26.6217 35.4881C26.6611 35.5247 26.6922 35.5692 26.7132 35.6187C26.7342 35.6682 26.7445 35.7215 26.7435 35.7753ZM19.5233 34.5535C19.3528 33.325 18.4758 32.0745 17.6931 30.9582C17.347 30.4645 17.0201 29.9991 16.7812 29.5755C15.4247 27.1757 14.549 24.2739 14.549 22.1827C14.549 18.0261 17.9963 14.7398 22.4718 14.5472V17.4603C22.3613 17.4686 22.2483 17.4786 22.1274 17.4932C22.041 17.5037 21.9601 17.5409 21.8959 17.5997C21.8318 17.6585 21.7876 17.7359 21.7696 17.821L21.6445 18.4252C21.5399 18.4502 21.436 18.4782 21.3314 18.5086L20.9144 18.0449C20.8563 17.98 20.7793 17.9349 20.6943 17.916C20.6092 17.8971 20.5204 17.9053 20.4403 17.9394C19.9736 18.1407 19.5331 18.3979 19.1284 18.7054C19.0589 18.7578 19.0075 18.8307 18.9815 18.9138C18.9555 18.9968 18.9561 19.086 18.9833 19.1687L19.1747 19.7525C19.0957 19.8267 19.0192 19.9033 18.9449 19.9822L18.3612 19.7908C18.2785 19.7641 18.1896 19.7636 18.1067 19.7895C18.0238 19.8154 17.951 19.8665 17.8983 19.9355C17.5913 20.3406 17.3348 20.7815 17.1344 21.2486C17.1002 21.3288 17.092 21.4176 17.111 21.5026C17.1299 21.5877 17.175 21.6646 17.2399 21.7227L17.7036 22.1397C17.6721 22.244 17.6443 22.3484 17.6202 22.4529L17.0159 22.578C16.9308 22.596 16.8534 22.6401 16.7947 22.7043C16.7359 22.7685 16.6987 22.8494 16.6882 22.9358C16.6204 23.4411 16.6204 23.9533 16.6882 24.4586C16.6987 24.545 16.7359 24.6259 16.7947 24.6901C16.8534 24.7542 16.9308 24.7984 17.0159 24.8164L17.6202 24.9415C17.6452 25.0463 17.673 25.1507 17.7036 25.2546L17.2399 25.6716C17.175 25.7297 17.1299 25.8067 17.111 25.8917C17.092 25.9768 17.1002 26.0656 17.1344 26.1457C17.3356 26.6128 17.593 27.0536 17.9008 27.4584C17.9535 27.5275 18.0264 27.5786 18.1094 27.6045C18.1924 27.6304 18.2814 27.6299 18.3641 27.6031L18.9479 27.4117C19.0221 27.4907 19.0987 27.5673 19.1776 27.6415L18.9862 28.2253C18.959 28.3079 18.9583 28.397 18.9842 28.4801C19.0102 28.5632 19.0615 28.6361 19.1309 28.6885C19.5356 28.9965 19.9763 29.254 20.4432 29.4554C20.5233 29.4895 20.6121 29.4977 20.6972 29.4788C20.7822 29.4599 20.8592 29.4148 20.9173 29.3499L21.3343 28.8862C21.4381 28.9179 21.5428 28.9458 21.6474 28.9696L21.7725 29.5734C21.7904 29.6585 21.8345 29.736 21.8986 29.7948C21.9627 29.8537 22.0435 29.891 22.1299 29.9016C22.2508 29.9162 22.3638 29.9266 22.4747 29.9345V34.5535H19.5233ZM19.1359 23.6972C19.1372 24.6198 19.4779 25.5097 20.0931 26.1973C20.7083 26.8849 21.555 27.3221 22.4718 27.4255V28.8595L22.4026 28.5313C22.3857 28.4501 22.3449 28.3757 22.2855 28.3178C22.226 28.2598 22.1507 28.2209 22.069 28.2061C21.8219 28.1612 21.5789 28.0958 21.3426 28.0105C21.2974 27.9944 21.2497 27.9861 21.2017 27.9859C21.143 27.9859 21.0851 27.9983 21.0315 28.0222C20.978 28.0461 20.9301 28.0811 20.891 28.1248L20.4991 28.5622C20.2817 28.4536 20.0719 28.3304 19.8711 28.1936L20.052 27.6427C20.0782 27.564 20.0803 27.4792 20.058 27.3993C20.0357 27.3194 19.9901 27.2479 19.9269 27.1941C19.7347 27.031 19.5562 26.8525 19.3932 26.6603C19.3394 26.5973 19.2681 26.5518 19.1883 26.5295C19.1086 26.5073 19.024 26.5092 18.9454 26.5352L18.3945 26.7162C18.2575 26.5155 18.1344 26.3057 18.0259 26.0882L18.4633 25.6962C18.5251 25.6409 18.569 25.5683 18.5894 25.4879C18.6097 25.4074 18.6056 25.3227 18.5776 25.2446C18.4925 25.0083 18.4271 24.7653 18.382 24.5182C18.3672 24.4366 18.3283 24.3613 18.2705 24.3019C18.2126 24.2425 18.1383 24.2016 18.0572 24.1846L17.4851 24.0641C17.4751 23.9349 17.47 23.8139 17.47 23.6984C17.47 23.5829 17.4751 23.462 17.4851 23.3327L18.0572 23.2122C18.1383 23.1952 18.2126 23.1544 18.2705 23.095C18.3283 23.0356 18.3672 22.9602 18.382 22.8786C18.4271 22.6314 18.4925 22.3883 18.5776 22.1518C18.6056 22.0737 18.6097 21.989 18.5894 21.9086C18.569 21.8281 18.5251 21.7556 18.4633 21.7002L18.0259 21.3087C18.1347 21.0914 18.2578 20.8816 18.3945 20.6807L18.9454 20.8617C19.0241 20.8873 19.1086 20.8892 19.1884 20.8669C19.2682 20.8446 19.3396 20.7993 19.3936 20.7366C19.5569 20.544 19.7355 20.3651 19.9278 20.2016C19.9907 20.1478 20.0361 20.0766 20.0584 19.9969C20.0807 19.9172 20.0788 19.8327 20.0529 19.7541L19.8723 19.2033C20.0724 19.0666 20.2813 18.9435 20.4978 18.8347L20.8898 19.2721C20.9451 19.3339 21.0177 19.3778 21.0981 19.3982C21.1786 19.4185 21.2633 19.4144 21.3414 19.3864C21.5776 19.3009 21.8206 19.2355 22.0678 19.1908C22.1494 19.176 22.2247 19.1371 22.2841 19.0793C22.3435 19.0214 22.3844 18.9471 22.4014 18.866L22.4718 18.5353V19.9689C21.555 20.0723 20.7083 20.5095 20.0931 21.1971C19.4779 21.8846 19.1372 22.7746 19.1359 23.6972ZM22.4718 20.8116V26.5827C21.7776 26.483 21.1426 26.1364 20.6833 25.6064C20.2239 25.0764 19.9711 24.3985 19.9711 23.6972C19.9711 22.9958 20.2239 22.318 20.6833 21.788C21.1426 21.258 21.7776 20.9113 22.4718 20.8116ZM26.2247 29.535C26.3072 29.535 26.3878 29.5595 26.4564 29.6053C26.525 29.6511 26.5784 29.7163 26.61 29.7924C26.6415 29.8686 26.6498 29.9525 26.6337 30.0334C26.6176 30.1143 26.5779 30.1886 26.5196 30.2469C26.4613 30.3052 26.387 30.3449 26.3061 30.361C26.2252 30.3771 26.1413 30.3688 26.0652 30.3373C25.989 30.3057 25.9238 30.2523 25.878 30.1837C25.8322 30.1151 25.8077 30.0345 25.8077 29.952C25.8077 29.8414 25.8517 29.7354 25.9299 29.6572C26.0081 29.579 26.1141 29.535 26.2247 29.535ZM25.3908 17.0254C25.4732 17.0254 25.5538 17.0498 25.6224 17.0956C25.691 17.1415 25.7444 17.2066 25.776 17.2828C25.8076 17.359 25.8158 17.4428 25.7997 17.5237C25.7836 17.6046 25.7439 17.6789 25.6856 17.7372C25.6273 17.7955 25.553 17.8352 25.4721 17.8513C25.3912 17.8674 25.3074 17.8592 25.2312 17.8276C25.155 17.796 25.0899 17.7426 25.044 17.674C24.9982 17.6054 24.9738 17.5248 24.9738 17.4424C24.9738 17.3318 25.0177 17.2257 25.0959 17.1475C25.1741 17.0693 25.2802 17.0254 25.3908 17.0254ZM26.2247 25.7821H23.3058V21.6122H26.2247V25.7821ZM29.9776 25.3651C29.8952 25.3651 29.8145 25.3407 29.746 25.2949C29.6774 25.249 29.6239 25.1839 29.5924 25.1077C29.5608 25.0315 29.5526 24.9477 29.5687 24.8668C29.5847 24.7859 29.6245 24.7116 29.6828 24.6533C29.7411 24.595 29.8154 24.5553 29.8963 24.5392C29.9772 24.5231 30.061 24.5313 30.1372 24.5629C30.2134 24.5945 30.2785 24.6479 30.3243 24.7165C30.3702 24.7851 30.3946 24.8657 30.3946 24.9482C30.3946 25.0587 30.3507 25.1648 30.2725 25.243C30.1943 25.3212 30.0882 25.3651 29.9776 25.3651ZM11.2131 36.2069H12.0471V37.0408H11.2131V36.2069ZM11.2131 37.8748H12.0471V38.7088H11.2131V37.8748ZM12.0471 37.0408H12.8811V37.8748H12.0471V37.0408ZM10.3792 37.0408H11.2131V37.8748H10.3792V37.0408ZM34.1475 13.6895H34.9815V14.5234H34.1475V13.6895ZM34.1475 15.3574H34.9815V16.1914H34.1475V15.3574ZM34.9815 14.5234H35.8155V15.3574H34.9815V14.5234ZM33.3135 14.5234H34.1475V15.3574H33.3135V14.5234Z" fill="black"/>
</svg>
