<svg width="39" height="45" viewBox="0 0 39 45" fill="none" xmlns="http://www.w3.org/2000/svg">
<path d="M34.3868 33.6666L30.9345 4.11649C30.6879 2.02867 28.7974 0.532676 26.7095 0.771049L4.3682 3.37672C2.28038 3.62331 0.784385 5.51385 1.02276 7.60168L4.46684 37.1517C4.71343 39.2396 6.60398 40.7356 8.6918 40.4972L31.0413 37.8915C33.1292 37.6449 34.6252 35.7544 34.3868 33.6666Z" fill="#AAFD33"/>
<path d="M8.16558 41.0232C7.22852 41.0232 6.31613 40.7108 5.56813 40.119C4.68862 39.4203 4.12967 38.4257 4.00638 37.3078L0.529416 7.56872C0.397899 6.45083 0.71025 5.3576 1.40893 4.47809C2.10761 3.59857 3.1022 3.03963 4.22009 2.91633L26.7505 0.286007C27.8601 0.154491 28.9616 0.466842 29.8411 1.16552C30.7206 1.8642 31.2796 2.8588 31.4029 3.97668L34.8716 33.7158C35.0031 34.8337 34.6908 35.9269 33.9921 36.8064C33.2934 37.686 32.2988 38.2449 31.1809 38.3682L8.65054 40.9985C8.49437 41.0067 8.32997 41.0232 8.16558 41.0232ZM27.2437 1.22306C27.1204 1.22306 26.9888 1.23128 26.8655 1.24772L4.32695 3.86983C3.47209 3.96846 2.70765 4.40411 2.17337 5.07813C1.63908 5.75215 1.40071 6.59879 1.49935 7.45365L4.96809 37.1928C5.06673 38.0476 5.49415 38.8203 6.17639 39.3546C6.85041 39.8888 7.69705 40.1272 8.55191 40.0286L31.0823 37.3983C31.9371 37.2996 32.7098 36.8722 33.2441 36.1982C33.7784 35.5242 34.0167 34.6775 33.9181 33.8227L30.4411 4.07532C30.3425 3.22046 29.9151 2.44781 29.2328 1.91352C28.6657 1.46143 27.967 1.22306 27.2437 1.22306Z" fill="#000102"/>
<path d="M38.0116 40.7026C38.0116 42.4863 36.5649 43.933 34.773 43.933H11.133C9.34931 43.933 7.89441 42.4863 7.89441 40.7026V9.79629C7.89441 8.0126 9.34109 6.56592 11.1248 6.56592H31.0002L38.0116 13.5774V40.7026Z" fill="#F4F6F8"/>
<path d="M38.0116 39.1984V40.7026C38.0116 42.4863 36.5649 43.933 34.773 43.933H11.133C9.34927 43.933 7.90259 42.4863 7.90259 40.7026V39.1902C7.90259 40.9739 9.34927 42.4206 11.133 42.4206H34.7812C36.5649 42.4288 38.0116 40.9821 38.0116 39.1984Z" fill="#D7DADF"/>
<path d="M34.7811 44.4178H11.1329C9.07792 44.4178 7.4093 42.7492 7.4093 40.7025V9.79614C7.4093 7.74942 9.07792 6.08081 11.1246 6.08081H31C31.1316 6.08081 31.2549 6.13013 31.3453 6.22055L38.3567 13.232C38.4471 13.3224 38.4965 13.4457 38.4965 13.5772V40.7025C38.4965 42.7574 36.8279 44.4178 34.7811 44.4178ZM11.1246 7.05896C9.6122 7.05896 8.37923 8.29193 8.37923 9.80436V40.7107C8.37923 42.2231 9.6122 43.4561 11.1329 43.4561H34.7811C36.2936 43.4561 37.5348 42.2231 37.5348 40.7107V13.7827L30.811 7.05896H11.1246Z" fill="#000102"/>
<path d="M38.0117 13.5775H32.6935C31.7646 13.5775 31.0084 12.8212 31.0084 11.8924V6.57422L38.0117 13.5775Z" fill="white"/>
<path d="M38.0116 14.0625H32.6935C31.4934 14.0625 30.5234 13.0843 30.5234 11.8924V6.57426C30.5234 6.37698 30.6385 6.20437 30.8193 6.12217C31.0002 6.04819 31.2057 6.08929 31.3454 6.22903L38.3569 13.2405C38.4966 13.3802 38.5377 13.5857 38.4637 13.7666C38.3815 13.9474 38.2089 14.0625 38.0116 14.0625ZM31.4852 7.74146V11.8924C31.4852 12.5582 32.0277 13.0925 32.6852 13.0925H36.8362L31.4852 7.74146Z" fill="#000102"/>
<path d="M24.2517 15.1557H12.7111C11.807 15.1557 11.0836 14.4242 11.0836 13.5282V11.7528C11.0836 10.8486 11.8152 10.1252 12.7111 10.1252H24.2517C25.1559 10.1252 25.8792 10.8568 25.8792 11.7528V13.5282C25.8792 14.4242 25.1476 15.1557 24.2517 15.1557Z" fill="#292929"/>
<path d="M25.1065 15.6406H11.8563C11.1576 15.6406 10.5986 15.0734 10.5986 14.3829V10.8978C10.5986 10.1991 11.1658 9.64014 11.8563 9.64014H25.1065C25.8052 9.64014 26.3641 10.2073 26.3641 10.8978V14.3829C26.3641 15.0734 25.797 15.6406 25.1065 15.6406ZM11.8563 10.6018C11.7001 10.6018 11.5686 10.7334 11.5686 10.8895V14.3747C11.5686 14.5309 11.7001 14.6624 11.8563 14.6624H25.1065C25.2627 14.6624 25.3942 14.5309 25.3942 14.3747V10.8895C25.3942 10.7334 25.2627 10.6018 25.1065 10.6018H11.8563Z" fill="#000102"/>
<path d="M34.0471 31.0117H12.6312C11.5019 31.0117 10.5985 30.6233 10.5985 30.1504V27.7632C10.5985 27.2847 11.5152 26.9019 12.6312 26.9019H34.0471C35.1764 26.9019 36.0798 27.2903 36.0798 27.7632V30.1504C36.0798 30.6233 35.1631 31.0117 34.0471 31.0117ZM12.6312 27.5606C12.3787 27.5606 12.1662 27.6506 12.1662 27.7576V30.1447C12.1662 30.2517 12.3787 30.3418 12.6312 30.3418H34.0471C34.2996 30.3418 34.5121 30.2517 34.5121 30.1447V27.7576C34.5121 27.6506 34.2996 27.5606 34.0471 27.5606H12.6312Z" fill="#000102"/>
<path d="M34.9703 23.8605H21.72C21.0213 23.8605 20.4624 23.2934 20.4624 22.6029V19.1177C20.4624 18.4191 21.0296 17.8601 21.72 17.8601H34.9703C35.669 17.8601 36.2279 18.4273 36.2279 19.1177V22.6029C36.2279 23.2934 35.6608 23.8605 34.9703 23.8605ZM21.72 18.8218C21.5639 18.8218 21.4323 18.9533 21.4323 19.1095V22.5947C21.4323 22.7509 21.5639 22.8824 21.72 22.8824H34.9703C35.1265 22.8824 35.258 22.7509 35.258 22.5947V19.1095C35.258 18.9533 35.1265 18.8218 34.9703 18.8218H21.72Z" fill="#000102"/>
<path d="M35.5157 39.7081H25.1531C24.6067 39.7081 24.1696 39.0866 24.1696 38.3299V34.5105C24.1696 33.7449 24.6131 33.1323 25.1531 33.1323H35.5157C36.0621 33.1323 36.4992 33.7539 36.4992 34.5105V38.3299C36.4992 39.0866 36.0557 39.7081 35.5157 39.7081ZM25.1531 34.1863C25.031 34.1863 24.9281 34.3304 24.9281 34.5015V38.3209C24.9281 38.4921 25.031 38.6362 25.1531 38.6362H35.5157C35.6378 38.6362 35.7407 38.4921 35.7407 38.3209V34.5015C35.7407 34.3304 35.6378 34.1863 35.5157 34.1863H25.1531Z" fill="#000102"/>
<rect x="11.8398" y="27.3784" width="23.0153" height="3.28791" rx="0.821976" fill="#292929"/>
</svg>
