<svg width="50" height="50" viewBox="0 0 50 50" fill="none" xmlns="http://www.w3.org/2000/svg">
<path d="M38.72 14.2572L32.9291 39.8411L31.9491 44.1843C31.5408 45.9958 29.7367 47.1391 27.9252 46.7234L5.08078 41.5561C3.26927 41.1478 2.12593 39.3437 2.53427 37.5322L9.30517 7.60505C9.42396 7.1002 9.63927 6.64732 9.94366 6.26126C10.7232 5.27384 12.0224 4.76157 13.3291 5.05853L29.2467 8.65929L24.6956 14.4502L32.5208 9.40172L36.1735 10.2258C37.9924 10.6416 39.1284 12.4382 38.72 14.2572Z" fill="#AAFD33"/>
<path d="M38.72 14.2571L32.9291 39.841L31.9491 44.1842C31.5408 45.9957 29.7367 47.139 27.9252 46.7233L5.08077 41.556C3.27667 41.1551 2.14077 39.3658 2.52683 37.5692C2.7941 38.809 3.75925 39.8484 5.08077 40.1454L27.9177 45.3127C29.7292 45.721 31.5408 44.5851 31.9417 42.7736L32.9217 38.4304L38.7126 12.8464C38.7126 12.839 38.7126 12.8242 38.72 12.8093C38.8314 13.2696 38.8314 13.7596 38.72 14.2571Z" fill="#AAFD33"/>
<path d="M28.6751 47.243C28.3929 47.243 28.1108 47.2133 27.8287 47.1465L4.98431 41.9866C3.98946 41.7639 3.1431 41.17 2.60113 40.3087C2.05916 39.4475 1.88098 38.4304 2.11113 37.4356L8.88204 7.50844C9.00825 6.95162 9.25325 6.43935 9.60219 5.99389C10.5079 4.85056 12.0076 4.30859 13.4331 4.63526L29.3507 8.23601C29.4992 8.26571 29.6179 8.37707 29.6699 8.51813C29.7219 8.65919 29.6922 8.8151 29.6031 8.93389L26.6779 12.6609L32.2981 9.03783C32.3946 8.97101 32.5208 8.94874 32.6322 8.97844L36.2849 9.80253C38.3266 10.2703 39.6184 12.3119 39.1581 14.3536L32.3872 44.2807C32.1645 45.2681 31.5705 46.1145 30.7093 46.6565C30.0783 47.0425 29.3804 47.243 28.6751 47.243ZM12.5942 5.4148C11.7107 5.4148 10.8495 5.82313 10.2852 6.52844C10.0105 6.86995 9.82492 7.26344 9.7284 7.69404L2.96492 37.6212C2.79416 38.3859 2.9278 39.1728 3.34355 39.8336C3.75931 40.4943 4.41264 40.9547 5.17734 41.1254L28.0143 46.2927C28.779 46.4634 29.566 46.3298 30.2267 45.914C30.8875 45.4983 31.3478 44.845 31.5186 44.0877L38.2895 14.1606C38.6458 12.5866 37.651 11.0127 36.077 10.6563L32.6025 9.86935L24.9333 14.8213C24.7551 14.9401 24.5175 14.9104 24.369 14.7471C24.2279 14.5912 24.2131 14.3462 24.3467 14.1828L28.4672 8.94132L13.2326 5.48904C13.0248 5.43707 12.8095 5.4148 12.5942 5.4148Z" fill="#000102"/>
<path d="M40.1009 5.79363V36.4706C40.1009 38.3267 38.5938 39.8338 36.7377 39.8338H13.3142C11.4507 39.8338 9.9436 38.3267 9.9436 36.4632V5.79363C9.9436 3.93757 11.4507 2.43045 13.3068 2.43045H25.8241C26.2472 2.43045 26.5145 2.86848 26.3289 3.24711L24.7475 6.45439C24.5768 6.80333 24.7995 7.22651 25.193 7.27105L28.9125 7.69423C29.3506 7.7462 29.5659 8.25848 29.2912 8.60742L29.2466 8.66681L25.7944 13.0545C25.5865 13.3218 25.9057 13.6707 26.1878 13.4926L32.5207 9.40923L34.7703 7.95408C35.1341 7.71651 35.1118 7.18196 34.7257 6.97408L29.9816 4.44984L32.0085 2.43045H36.7228C38.5938 2.42302 40.1009 3.93014 40.1009 5.79363Z" fill="#F4F6F8"/>
<path d="M40.1009 35.0672V36.4778C40.1009 38.3413 38.5938 39.841 36.7377 39.841H13.3142C11.4507 39.841 9.9436 38.3339 9.9436 36.4704V35.0598C9.9436 36.9233 11.4507 38.4304 13.3142 38.4304H36.7377C38.5938 38.4304 40.1009 36.9307 40.1009 35.0672Z" fill="#D7DADF"/>
<path d="M36.7379 40.2791H13.3144C11.2133 40.2791 9.50574 38.5715 9.50574 36.4705V5.7935C9.50574 3.69244 11.2133 1.98486 13.3144 1.98486H25.8316C26.1806 1.98486 26.4998 2.16305 26.6854 2.46001C26.871 2.75698 26.8859 3.12077 26.7374 3.44001L25.1486 6.63986C25.1263 6.69183 25.1412 6.73638 25.1486 6.75865C25.1635 6.78092 25.1857 6.81805 25.2451 6.82547L28.9647 7.24865C29.3285 7.2932 29.6329 7.51592 29.7813 7.85744C29.9298 8.19895 29.8704 8.57759 29.6477 8.86714L26.6706 12.6535L34.5403 7.57532C34.5923 7.5382 34.5997 7.49365 34.5997 7.46395C34.5997 7.43426 34.5848 7.38971 34.5329 7.36001L29.7888 4.83577C29.6626 4.76895 29.5809 4.65017 29.5586 4.50911C29.5363 4.36805 29.5809 4.23441 29.6848 4.13047L31.7116 2.11108C31.7933 2.02941 31.9047 1.98486 32.016 1.98486H36.7304C38.8315 1.98486 40.5391 3.69244 40.5391 5.7935V36.4705C40.5391 38.5715 38.8315 40.2791 36.7379 40.2791ZM13.3144 2.86092C11.7033 2.86092 10.3892 4.17501 10.3892 5.78608V36.4705C10.3892 38.089 11.7033 39.403 13.3218 39.403H36.7453C38.3563 39.403 39.6704 38.089 39.6704 36.4779V5.7935C39.6704 4.17501 38.3563 2.86092 36.7379 2.86092H32.2091L30.7316 4.33835L34.9486 6.58047C35.2679 6.75123 35.4683 7.06305 35.4832 7.42683C35.498 7.79062 35.3273 8.11729 35.0229 8.31774L26.4404 13.8562C26.1286 14.0567 25.7426 14.0047 25.4976 13.73C25.2526 13.4553 25.2377 13.0693 25.4604 12.7797L28.9573 8.33259C28.9944 8.28805 28.9869 8.23608 28.9721 8.20638C28.9573 8.17668 28.9276 8.13956 28.8682 8.13214L25.1486 7.70153C24.8219 7.66441 24.5398 7.47138 24.3765 7.18183C24.2206 6.89229 24.2132 6.55077 24.3542 6.2538L25.9356 3.04653C25.9653 2.99456 25.943 2.94259 25.9282 2.92032C25.9133 2.89805 25.8836 2.86092 25.8168 2.86092H13.3144Z" fill="#000102"/>
<path d="M37.2277 26.1955L43.3898 28.794L43.8204 27.7769C44.251 26.7523 43.7684 25.5719 42.7439 25.1338L40.2939 24.1019C39.2693 23.6713 38.0889 24.1538 37.6508 25.1784L37.2277 26.1955Z" fill="#656D78"/>
<path d="M43.3899 29.2319C43.3305 29.2319 43.2785 29.2245 43.2191 29.1948L37.057 26.5963C36.9531 26.5518 36.864 26.4627 36.8194 26.3587C36.7749 26.2474 36.7749 26.1286 36.8194 26.0247L37.6212 24.124C37.9405 23.3668 38.8165 23.003 39.5812 23.3297L43.7982 25.104C44.5555 25.4233 44.9118 26.3068 44.5926 27.064L43.7908 28.9721C43.724 29.1354 43.5606 29.2319 43.3899 29.2319ZM37.7994 25.9653L43.1523 28.2222L43.7834 26.7225C43.917 26.4107 43.7685 26.0469 43.4567 25.9133L39.2397 24.1389C38.9279 24.0053 38.5641 24.1537 38.4305 24.4656L37.7994 25.9653Z" fill="black"/>
<path d="M36.4558 47.5698C42.4955 47.5698 47.3917 42.6736 47.3917 36.6339C47.3917 30.5942 42.4955 25.698 36.4558 25.698C30.4161 25.698 25.5199 30.5942 25.5199 36.6339C25.5199 42.6736 30.4161 47.5698 36.4558 47.5698Z" fill="#292929"/>
<path d="M46.5305 40.8805C44.1844 46.4487 37.7698 49.0546 32.2017 46.7086C27.7917 44.8451 25.2377 40.4425 25.5347 35.9211C25.7945 39.9228 28.252 43.6424 32.2017 45.3054C37.7698 47.6514 44.1844 45.0381 46.5305 39.4774C47.0205 38.3192 47.2951 37.1239 47.3694 35.936C47.4808 37.5767 47.2135 39.2621 46.5305 40.8805Z" fill="#292929"/>
<path d="M36.4556 48.0151C34.9559 48.0151 33.4562 47.7181 32.0382 47.1168C26.2547 44.6816 23.5375 37.9924 25.9726 32.2163C28.4078 26.4328 35.097 23.7156 40.8731 26.1507C46.6566 28.5859 49.3738 35.2751 46.9387 41.0512C45.7582 43.8501 43.5606 46.0254 40.7394 47.1687C39.3585 47.733 37.9034 48.0151 36.4556 48.0151ZM36.4556 26.1284C35.1193 26.1284 33.7755 26.3883 32.4985 26.908C29.9 27.9622 27.8732 29.9668 26.7819 32.5504C25.6905 35.134 25.6756 37.985 26.7299 40.5834C27.7841 43.1819 29.7887 45.2087 32.3723 46.3001C34.9559 47.3915 37.8069 47.4063 40.4053 46.3521C43.0038 45.2978 45.0306 43.2933 46.122 40.7097C47.2134 38.126 47.2282 35.2751 46.174 32.6766C45.1197 30.0781 43.1152 28.0513 40.5315 26.96C39.2175 26.4031 37.8366 26.1284 36.4556 26.1284Z" fill="black"/>
<path d="M33.5454 43.5236C29.7441 41.92 27.9623 37.5248 29.5585 33.731C31.1622 29.9298 35.5573 28.148 39.3511 29.7442C43.1449 31.3404 44.9341 35.743 43.3379 39.5368C41.7417 43.338 37.3466 45.1198 33.5454 43.5236Z" fill="#F4F6F8"/>
<path d="M43.338 39.5368C41.7343 43.3306 37.3466 45.1198 33.5454 43.5162C30.4569 42.217 28.7048 39.0691 29.0092 35.8989C29.2542 38.5568 30.9172 40.9994 33.5454 42.1056C37.3466 43.7092 41.7343 41.92 43.338 38.1262C43.6424 37.4135 43.8205 36.6859 43.8874 35.9583C44.0062 37.1462 43.8354 38.3712 43.338 39.5368Z" fill="#D7DADF"/>
<path d="M36.4483 44.5482C35.4089 44.5482 34.3695 44.3403 33.3821 43.9245C29.3581 42.2318 27.465 37.5768 29.1651 33.5529C30.8578 29.5289 35.5128 27.6357 39.5368 29.3359C43.5607 31.0286 45.4539 35.6836 43.7538 39.7076C42.9371 41.6527 41.4003 43.1673 39.4403 43.9617C38.4677 44.3551 37.458 44.5482 36.4483 44.5482ZM36.4631 29.5957C33.7162 29.5957 31.1028 31.2142 29.9669 33.9018C29.2394 35.6317 29.2245 37.5471 29.9372 39.2844C30.6425 41.0291 31.9863 42.3877 33.7162 43.1153C35.446 43.8429 37.3541 43.8577 39.0988 43.145C40.8435 42.4397 42.2021 41.0959 42.9297 39.366C44.4368 35.7876 42.7515 31.6523 39.1804 30.1451C38.2969 29.7739 37.3763 29.5957 36.4631 29.5957Z" fill="black"/>
<path d="M40.747 38.8834C40.6876 38.8834 40.6356 38.876 40.5762 38.8463C40.3535 38.7498 40.2495 38.4973 40.3386 38.2672C41.2444 36.1216 40.2347 33.6419 38.0891 32.7361C37.8664 32.6396 37.7624 32.3872 37.8515 32.157C37.948 31.9343 38.2005 31.8229 38.4306 31.9194C41.0217 33.0108 42.2392 36.0102 41.1479 38.6013C41.0811 38.7794 40.9177 38.8834 40.747 38.8834Z" fill="black"/>
<path d="M41.519 25.0596C41.4596 25.0596 41.4076 25.0521 41.3483 25.0224C41.1255 24.9259 41.0216 24.6735 41.1107 24.4433L41.3779 23.8049C41.7195 22.9882 42.6623 22.6096 43.479 22.9511C43.8428 23.107 44.266 22.9362 44.4219 22.565L44.756 21.7706C44.8525 21.5479 45.1049 21.4439 45.3351 21.533C45.5578 21.6296 45.6617 21.882 45.5726 22.1121L45.2386 22.9065C44.897 23.7232 43.9542 24.1018 43.1449 23.7603C42.7811 23.6044 42.3505 23.7752 42.202 24.1464L41.9348 24.7849C41.8531 24.9556 41.6898 25.0596 41.519 25.0596Z" fill="black"/>
<path d="M46.8051 21.1319C47.0501 21.0057 47.3025 20.8721 47.5475 20.7458Z" fill="white"/>
<path d="M46.8051 21.57C46.6492 21.57 46.4933 21.4809 46.4117 21.3325C46.3003 21.1171 46.382 20.8499 46.5973 20.7385L47.3397 20.3525C47.555 20.2411 47.8223 20.3228 47.9336 20.5381C48.045 20.7534 47.9633 21.0206 47.748 21.132L47.0056 21.5181C46.9462 21.5552 46.872 21.57 46.8051 21.57Z" fill="black"/>
<path d="M45.7136 20.642C45.8027 20.4415 45.8844 20.2337 45.9735 20.0332Z" fill="white"/>
<path d="M45.7136 21.0801C45.6542 21.0801 45.6022 21.0727 45.5428 21.043C45.3201 20.9465 45.2162 20.694 45.3053 20.4639L45.5651 19.8551C45.6616 19.6324 45.914 19.5284 46.1442 19.6175C46.3669 19.714 46.4709 19.9665 46.3818 20.1966L46.1219 20.8054C46.0551 20.9836 45.8918 21.0801 45.7136 21.0801Z" fill="black"/>
<path d="M44.6074 20.2039C44.5258 19.9366 44.4441 19.6694 44.3699 19.4021Z" fill="white"/>
<path d="M44.6075 20.642C44.4219 20.642 44.2437 20.5158 44.1843 20.3302L43.9468 19.5284C43.8799 19.2982 44.0061 19.0532 44.2437 18.979C44.4739 18.9122 44.7189 19.0384 44.7931 19.2759L45.0307 20.0778C45.0975 20.3079 44.9713 20.5529 44.7337 20.6272C44.6892 20.642 44.6446 20.642 44.6075 20.642Z" fill="black"/>
<path d="M22.5871 6.55087H13.3885C13.1435 6.55087 12.9504 6.35041 12.9504 6.11284C12.9504 5.87526 13.1509 5.6748 13.3885 5.6748H22.5871C22.8321 5.6748 23.0251 5.87526 23.0251 6.11284C23.0251 6.35041 22.8321 6.55087 22.5871 6.55087Z" fill="#000102"/>
<path d="M22.5871 10.8421H13.3885C13.1435 10.8421 12.9504 10.6417 12.9504 10.4041C12.9504 10.1591 13.1509 9.96606 13.3885 9.96606H22.5871C22.8321 9.96606 23.0251 10.1665 23.0251 10.4041C23.0251 10.6491 22.8321 10.8421 22.5871 10.8421Z" fill="#000102"/>
<path d="M23.7676 15.1334H13.3885C13.1435 15.1334 12.9504 14.9329 12.9504 14.6954C12.9504 14.4504 13.1509 14.2573 13.3885 14.2573H23.775C24.02 14.2573 24.213 14.4578 24.213 14.6954C24.2056 14.9404 24.0126 15.1334 23.7676 15.1334Z" fill="#000102"/>
<path d="M36.4556 19.4244H13.3885C13.1435 19.4244 12.9504 19.2239 12.9504 18.9864C12.9504 18.7414 13.1509 18.5483 13.3885 18.5483H36.4556C36.7006 18.5483 36.8936 18.7488 36.8936 18.9864C36.8936 19.2314 36.6932 19.4244 36.4556 19.4244Z" fill="#000102"/>
<path d="M34.2357 23.7157H13.3885C13.1435 23.7157 12.9504 23.5152 12.9504 23.2776C12.9504 23.0326 13.1509 22.8396 13.3885 22.8396H34.2432C34.4882 22.8396 34.6812 23.0401 34.6812 23.2776C34.6738 23.5226 34.4807 23.7157 34.2357 23.7157Z" fill="#000102"/>
<path d="M25.5123 28.0069H13.3885C13.1435 28.0069 12.9504 27.8065 12.9504 27.5689C12.9504 27.3313 13.1509 27.1309 13.3885 27.1309H25.5197C25.7647 27.1309 25.9577 27.3313 25.9577 27.5689C25.9577 27.8065 25.7573 28.0069 25.5123 28.0069Z" fill="#000102"/>
<path d="M23.7676 32.2982H13.3885C13.1435 32.2982 12.9504 32.0977 12.9504 31.8601C12.9504 31.6226 13.1509 31.4221 13.3885 31.4221H23.775C24.02 31.4221 24.213 31.6226 24.213 31.8601C24.213 32.0977 24.0126 32.2982 23.7676 32.2982Z" fill="#000102"/>
<path d="M22.5871 36.5894H13.3885C13.1435 36.5894 12.9504 36.389 12.9504 36.1514C12.9504 35.9138 13.1509 35.7134 13.3885 35.7134H22.5871C22.8321 35.7134 23.0251 35.9138 23.0251 36.1514C23.0251 36.389 22.8321 36.5894 22.5871 36.5894Z" fill="#000102"/>
</svg>
