<svg width="50" height="50" viewBox="0 0 50 50" fill="none" xmlns="http://www.w3.org/2000/svg">
<path d="M37.1236 37.2053L33.4486 5.65974C33.2185 3.67005 31.4144 2.24459 29.4321 2.48217L5.39981 5.28111C3.41012 5.51126 1.99209 7.31535 2.22224 9.29762L5.90466 40.8432C6.13481 42.8329 7.9389 44.251 9.92118 44.0208L33.946 41.2219C35.9357 40.9917 37.3612 39.195 37.1236 37.2053Z" fill="#AAFD33"/>
<path d="M9.27538 44.5183C8.42159 44.5183 7.5975 44.2362 6.91447 43.6942C6.11266 43.0631 5.60781 42.1574 5.48902 41.1477L1.75463 9.09722C1.50963 7.01101 3.01675 5.11783 5.10296 4.87283L29.6252 2.0145C31.7114 1.7695 33.6121 3.26919 33.8571 5.36283L37.5914 37.4059C37.7102 38.4156 37.4281 39.4178 36.7971 40.2122C36.166 41.014 35.2602 41.5189 34.2505 41.6303L9.72826 44.4886C9.57235 44.5109 9.42387 44.5183 9.27538 44.5183ZM30.0707 2.86829C29.9593 2.86829 29.8405 2.87571 29.7292 2.89056L5.2069 5.74889C3.60326 5.9345 2.44508 7.39707 2.63069 9.00071L6.36508 41.0437C6.45417 41.8233 6.84766 42.5212 7.45644 43.0037C8.07266 43.4863 8.83735 43.709 9.6169 43.62L34.1392 40.7616C34.9187 40.6725 35.6166 40.279 36.0992 39.6703C36.5817 39.054 36.8045 38.2893 36.7154 37.5098L32.981 5.45935C32.8102 3.96707 31.5333 2.86829 30.0707 2.86829Z" fill="#000102"/>
<path d="M40.873 44.199C40.873 46.0625 39.3584 47.5696 37.4949 47.5696H12.8168C10.9533 47.5696 9.43872 46.0551 9.43872 44.199V11.9407C9.43872 10.0772 10.9533 8.57007 12.8093 8.57007H33.5527L40.873 15.8904V44.199Z" fill="#F4F6F8"/>
<path d="M37.5024 48.0152H12.8168C10.7157 48.0152 9.00073 46.3076 9.00073 44.1992V11.9408C9.00073 9.83976 10.7083 8.12476 12.8168 8.12476H33.5601C33.6789 8.12476 33.7903 8.1693 33.8719 8.25097L41.1922 15.5713C41.2739 15.6529 41.3185 15.7643 41.3185 15.8831L41.3259 44.1992C41.3185 46.3076 39.6035 48.0152 37.5024 48.0152ZM12.8094 9.00824C11.1909 9.00824 9.87679 10.3223 9.87679 11.9408V44.1992C9.87679 45.8176 11.1909 47.1317 12.8094 47.1317H37.495C39.1135 47.1317 40.4275 45.8176 40.4275 44.1992L40.4201 16.0687L33.3597 9.00824H12.8094Z" fill="#000102"/>
<path d="M40.8729 15.8829H35.3196C34.347 15.8829 33.5601 15.096 33.5601 14.1234V8.57007L40.8729 15.8829Z" fill="white"/>
<path d="M40.873 16.321H35.3196C34.102 16.321 33.1146 15.3336 33.1146 14.116V8.56264C33.1146 8.38446 33.2186 8.22113 33.3893 8.15431C33.5527 8.08749 33.7457 8.12461 33.8719 8.25082L41.1922 15.5711C41.3184 15.6973 41.3555 15.8829 41.2887 16.0537C41.2145 16.217 41.0511 16.321 40.873 16.321ZM33.9981 9.63173V14.1234C33.9981 14.851 34.592 15.4449 35.3196 15.4449H39.8113L33.9981 9.63173Z" fill="#000102"/>
<path d="M21.2359 33.3597C22.4332 33.3597 23.4038 32.3891 23.4038 31.1918C23.4038 29.9945 22.4332 29.0239 21.2359 29.0239C20.0386 29.0239 19.068 29.9945 19.068 31.1918C19.068 32.3891 20.0386 33.3597 21.2359 33.3597Z" fill="#656D78"/>
<path d="M21.2358 33.7978C19.7955 33.7978 18.6299 32.6247 18.6299 31.1918C18.6299 29.7515 19.8029 28.5859 21.2358 28.5859C22.6687 28.5859 23.8417 29.759 23.8417 31.1918C23.8417 32.6321 22.6687 33.7978 21.2358 33.7978ZM21.2358 29.4694C20.2855 29.4694 19.5059 30.2415 19.5059 31.1993C19.5059 32.1496 20.2781 32.9291 21.2358 32.9291C22.1861 32.9291 22.9656 32.157 22.9656 31.1993C22.9582 30.2415 22.1861 29.4694 21.2358 29.4694Z" fill="black"/>
<path d="M18.9046 27.2645H23.567C23.6932 25.5718 24.4356 23.9756 25.7052 22.8248C27.1232 21.533 27.9844 19.6398 27.8731 17.5462C27.6874 14.0939 24.8068 11.3247 21.3471 11.2653C17.635 11.2059 14.5985 14.2053 14.5985 17.9025C14.5985 19.8032 15.4003 21.5256 16.6847 22.7357C17.9543 23.9385 18.7635 25.5347 18.9046 27.2645Z" fill="#AAFD33"/>
<path d="M18.9046 27.2645H23.567C23.6932 25.5718 24.4356 23.9756 25.7052 22.8248C27.1232 21.533 27.9844 19.6398 27.8731 17.5462C27.6874 14.0939 24.8068 11.3247 21.3471 11.2653C17.635 11.2059 14.5985 14.2053 14.5985 17.9025C14.5985 19.8032 15.4003 21.5256 16.6847 22.7357C17.9543 23.9385 18.7635 25.5347 18.9046 27.2645Z" fill="white"/>
<path d="M23.5596 27.7099H18.8972C18.667 27.7099 18.474 27.5317 18.4591 27.3015C18.3329 25.7202 17.5905 24.2131 16.3729 23.0623C14.94 21.7111 14.1531 19.8773 14.1531 17.9099C14.1531 15.9944 14.9029 14.2052 16.269 12.8614C17.6053 11.5473 19.3649 10.8271 21.2358 10.8271C21.2729 10.8271 21.31 10.8271 21.3472 10.8271C25.0519 10.8865 28.1107 13.8265 28.3037 17.5238C28.415 19.662 27.5761 21.7111 25.9947 23.1514C24.8291 24.2056 24.1238 25.6831 24.005 27.3015C23.9828 27.5317 23.7897 27.7099 23.5596 27.7099ZM19.2981 26.8264H23.1661C23.3814 25.1411 24.1684 23.6191 25.4008 22.4981C26.7891 21.2434 27.5241 19.4467 27.4276 17.5684C27.2569 14.3314 24.5841 11.7552 21.3323 11.7106C19.6693 11.6809 18.0805 12.3194 16.8852 13.4925C15.6899 14.6655 15.0366 16.2394 15.0366 17.9099C15.0366 19.6323 15.727 21.2359 16.9817 22.4238C18.2587 23.6265 19.0679 25.1782 19.2981 26.8264Z" fill="black"/>
<path d="M20.3598 27.2647V18.118C20.3598 17.4796 19.8475 16.9673 19.209 16.9673H18.9269C18.2884 16.9673 17.7761 17.4796 17.7761 18.118C17.7761 18.7565 18.2884 19.2688 18.9269 19.2688H23.5522C24.1907 19.2688 24.7029 18.7565 24.7029 18.118C24.7029 17.4796 24.1907 16.9673 23.5522 16.9673H23.2701C22.6316 16.9673 22.1193 17.4796 22.1193 18.118V27.2647H20.3598Z" fill="#F4F6F8"/>
<path d="M22.1118 27.7101H20.3597C20.1147 27.7101 19.9216 27.5097 19.9216 27.2721V19.7142H18.9268C18.0507 19.7142 17.338 19.0015 17.338 18.1254C17.338 17.2493 18.0507 16.5366 18.9268 16.5366H19.2089C20.085 16.5366 20.7977 17.2493 20.7977 18.1254V18.8381H21.6663V18.1254C21.6663 17.2493 22.3791 16.5366 23.2551 16.5366H23.5373C24.4133 16.5366 25.126 17.2493 25.126 18.1254C25.126 19.0015 24.4133 19.7142 23.5373 19.7142H22.5498V27.2721C22.5498 27.3909 22.5053 27.5022 22.4236 27.5839C22.342 27.6581 22.2232 27.7101 22.1118 27.7101ZM20.7977 26.8266H21.6738V19.7068H20.8051L20.7977 26.8266ZM22.5498 18.8233H23.5447C23.9382 18.8233 24.2574 18.504 24.2574 18.1106C24.2574 17.7171 23.9382 17.3978 23.5447 17.3978H23.2626C22.8691 17.3978 22.5498 17.7171 22.5498 18.1106V18.8233ZM18.9194 17.4053C18.5259 17.4053 18.2066 17.7245 18.2066 18.118C18.2066 18.5115 18.5259 18.8307 18.9194 18.8307H19.9142V18.118C19.9142 17.7245 19.595 17.4053 19.2015 17.4053H18.9194Z" fill="black"/>
<path d="M18.474 29.2321H23.9902C24.3391 29.2321 24.6212 28.95 24.6212 28.601V27.8957C24.6212 27.5468 24.3391 27.2646 23.9902 27.2646H18.474C18.125 27.2646 17.8429 27.5468 17.8429 27.8957V28.5936C17.8429 28.95 18.125 29.2321 18.474 29.2321Z" fill="#656D78"/>
<path d="M23.6411 29.67H18.8302C18.0433 29.67 17.4048 29.0315 17.4048 28.2445C17.4048 27.4576 18.0433 26.8191 18.8302 26.8191H23.6411C24.4281 26.8191 25.0666 27.4576 25.0666 28.2445C25.0666 29.0315 24.4281 29.67 23.6411 29.67ZM18.8302 27.71C18.5333 27.71 18.2883 27.955 18.2883 28.252C18.2883 28.5489 18.5333 28.7939 18.8302 28.7939H23.6411C23.9381 28.7939 24.1831 28.5489 24.1831 28.252C24.1831 27.955 23.9381 27.71 23.6411 27.71H18.8302Z" fill="black"/>
<path d="M18.474 31.1922H23.9902C24.3391 31.1922 24.6212 30.9101 24.6212 30.5611V29.8632C24.6212 29.5143 24.3391 29.2322 23.9902 29.2322H18.474C18.125 29.2322 17.8429 29.5143 17.8429 29.8632V30.5611C17.8429 30.9101 18.125 31.1922 18.474 31.1922Z" fill="#656D78"/>
<path d="M23.6411 31.6375H18.8302C18.0433 31.6375 17.4048 30.999 17.4048 30.2121C17.4048 29.4251 18.0433 28.7866 18.8302 28.7866H23.6411C24.4281 28.7866 25.0666 29.4251 25.0666 30.2121C25.0666 30.999 24.4281 31.6375 23.6411 31.6375ZM18.8302 29.6701C18.5333 29.6701 18.2883 29.9151 18.2883 30.2121C18.2883 30.509 18.5333 30.754 18.8302 30.754H23.6411C23.9381 30.754 24.1831 30.509 24.1831 30.2121C24.1831 29.9151 23.9381 29.6701 23.6411 29.6701H18.8302Z" fill="black"/>
<path d="M42.6295 23.5173L34.9124 38.8911L38.8072 40.8462L46.5243 25.4724L42.6295 23.5173Z" fill="#292929"/>
<path d="M38.8091 41.2886C38.7423 41.2886 38.6754 41.2738 38.6086 41.2441L34.7109 39.2841C34.607 39.2321 34.5253 39.143 34.4882 39.0317C34.451 38.9203 34.4585 38.8015 34.5104 38.6976L42.2242 23.322C42.3356 23.1067 42.5954 23.0176 42.8182 23.1289L46.7159 25.0889C46.9312 25.2003 47.0203 25.4602 46.9089 25.6829L39.2026 41.0436C39.1283 41.1995 38.9724 41.2886 38.8091 41.2886ZM35.5053 38.6976L38.616 40.2567L45.9363 25.6755L42.8256 24.1164L35.5053 38.6976Z" fill="#000102"/>
<path d="M47.4361 22.0747L44.8153 20.7606C44.4589 20.5824 44.0358 20.7235 43.8576 21.0799L42.6326 23.5224L46.5303 25.4824L47.7553 23.0399C47.9335 22.6761 47.785 22.2529 47.4361 22.0747Z" fill="#292929"/>
<path d="M46.5229 25.9131C46.4561 25.9131 46.3893 25.8982 46.3225 25.8685L42.4248 23.9086C42.2095 23.7972 42.1204 23.5373 42.2317 23.3146L43.4567 20.872C43.5978 20.5973 43.8354 20.3895 44.1249 20.2929C44.4219 20.1964 44.7337 20.2187 45.0084 20.3598L47.6291 21.6739C47.9038 21.8149 48.1117 22.0525 48.2082 22.342C48.3048 22.6316 48.2825 22.9508 48.1414 23.2255L46.9164 25.6681C46.8422 25.824 46.6863 25.9131 46.5229 25.9131ZM43.2191 23.322L46.3299 24.8811L47.3619 22.832C47.3916 22.7652 47.399 22.691 47.3767 22.6242C47.3545 22.5573 47.3025 22.4979 47.2431 22.4682L44.6223 21.1542C44.5555 21.1245 44.4813 21.117 44.4145 21.1393C44.3476 21.1616 44.2882 21.2136 44.2585 21.2729L43.2191 23.322Z" fill="#000102"/>
<path d="M35.3345 42.9071L37.2055 41.7935L35.1118 40.7393L35.3345 42.9071Z" fill="#656D78"/>
<path d="M35.3344 43.3452C35.2676 43.3452 35.2008 43.3303 35.1339 43.3006C35.0003 43.2338 34.9112 43.1002 34.8964 42.9517L34.6662 40.7912C34.6514 40.6279 34.7182 40.472 34.8518 40.3829C34.9855 40.2938 35.1562 40.279 35.2973 40.3532L37.3983 41.4074C37.5394 41.4817 37.6359 41.6227 37.6433 41.7861C37.6508 41.9494 37.5691 42.0979 37.428 42.1796L35.5571 43.2858C35.4903 43.3229 35.4161 43.3452 35.3344 43.3452ZM35.6314 41.4965L35.7056 42.1721L36.2921 41.8232L35.6314 41.4965Z" fill="#000102"/>
<path d="M38.4229 39.8928C38.3338 39.6701 38.0963 39.5513 37.8587 39.6107L37.2647 39.7666C37.0346 39.826 36.797 39.7072 36.7005 39.4845L36.4703 38.9128C36.3813 38.6901 36.1437 38.5713 35.9135 38.6307L34.9113 38.8905L35.1043 40.7392L37.2053 41.7934L38.809 40.8431L38.4229 39.8928Z" fill="#EFC7A4"/>
<path d="M37.2054 42.239C37.1386 42.239 37.0717 42.2241 37.0049 42.1944L34.9039 41.1402C34.7702 41.0734 34.6811 40.9397 34.6663 40.7912L34.4733 38.9426C34.451 38.7273 34.592 38.5268 34.7999 38.4675L35.8022 38.2076C36.2477 38.0962 36.708 38.3264 36.8787 38.7496L37.1089 39.3212C37.1163 39.3361 37.1311 39.3509 37.1534 39.3435L37.7473 39.1876C38.1854 39.0688 38.6531 39.3064 38.8239 39.7296L39.2099 40.6873C39.2916 40.8878 39.2173 41.1179 39.0243 41.2293L37.4207 42.1796C37.3613 42.2167 37.287 42.239 37.2054 42.239ZM35.5201 40.4571L37.1905 41.2961L38.2596 40.665L38.0146 40.0637C38.0072 40.0488 37.9923 40.034 37.9701 40.0414L37.3761 40.1973C36.9307 40.3087 36.4704 40.0785 36.2996 39.6553L36.0695 39.0837C36.062 39.0688 36.0398 39.0614 36.0249 39.0614L35.3939 39.2247L35.5201 40.4571Z" fill="#000102"/>
<path d="M36.9306 40.1677C36.8638 40.1677 36.797 40.1528 36.7302 40.1231C36.5149 40.0117 36.4258 39.7519 36.5371 39.5292L44.1841 24.2946C44.2955 24.0793 44.5553 23.9902 44.7781 24.1016C44.9934 24.213 45.0824 24.4728 44.9711 24.6955L37.3241 39.9301C37.2499 40.0786 37.094 40.1677 36.9306 40.1677Z" fill="#000102"/>
<path d="M25.9427 35.8616C25.2077 35.8616 24.4876 35.78 23.7823 35.6092C22.1415 35.2157 21.1318 34.4956 20.7903 33.4636C20.7161 33.2334 20.8423 32.981 21.0724 32.9068C21.3026 32.8325 21.555 32.9587 21.6293 33.1889C21.9262 34.0872 23.077 34.5327 23.9827 34.748C25.6755 35.1489 27.5241 35.0153 29.3282 34.3471C30.427 33.9387 31.2362 33.523 31.6743 33.1295C32.09 32.7583 32.4835 32.2831 32.8993 31.6372C33.7382 30.338 34.2208 28.9942 34.3321 27.7469C33.7827 28.0736 33.1665 28.2295 32.5503 28.2295C31.4664 28.1998 30.5829 27.643 30.13 26.6927C29.6549 25.6904 29.7662 24.4431 30.427 23.6042C30.5903 23.3889 30.7759 23.2181 30.9764 23.0845C31.6074 22.6762 32.4835 22.6613 33.2185 23.0548C33.7902 23.3592 34.2876 23.9012 34.6514 24.6213C34.7702 24.8589 34.8741 25.1113 34.9558 25.3712C35.8318 23.3147 38.0517 19.3724 41.1996 18.0434C42.7587 17.3901 44.3549 17.4272 45.9511 18.1622C46.4262 18.3924 46.7752 18.7933 46.9385 19.2907C47.1018 19.7881 47.0573 20.3153 46.8197 20.7756L46.4114 21.5625C46.3 21.7778 46.0328 21.8595 45.8174 21.7481C45.6021 21.6368 45.5205 21.3695 45.6318 21.1542L46.0402 20.3672C46.1738 20.1148 46.1961 19.8327 46.107 19.5654C46.0179 19.2981 45.8323 19.0828 45.5799 18.9566C44.2212 18.333 42.8626 18.2959 41.5411 18.8527C38.319 20.2113 36.062 24.8143 35.5274 26.314C35.4532 26.5293 35.3493 26.7298 35.2305 26.9154C35.3047 28.5562 34.7627 30.3825 33.6417 32.1124C33.1814 32.8251 32.7434 33.3522 32.2608 33.7828C31.7337 34.2506 30.8502 34.7183 29.6326 35.1712C28.415 35.6315 27.1677 35.8616 25.9427 35.8616ZM32.09 23.6562C31.8599 23.6562 31.6371 23.7156 31.459 23.8269C31.3476 23.9012 31.2362 24.0125 31.1249 24.1462C30.672 24.7327 30.5903 25.6087 30.9318 26.3215C31.11 26.7001 31.5629 27.3312 32.58 27.3534C33.1368 27.3757 33.7308 27.1604 34.2059 26.7743C34.2505 26.7372 34.295 26.6927 34.3396 26.6481C34.2802 26.0616 34.1243 25.5122 33.8718 25.0148C33.6788 24.6287 33.3373 24.109 32.8102 23.8269C32.58 23.7156 32.3276 23.6562 32.09 23.6562Z" fill="#000102"/>
<path d="M32.5502 38.7052H12.7052C12.4602 38.7052 12.2672 38.5047 12.2672 38.2671C12.2672 38.0296 12.4677 37.8291 12.7052 37.8291H32.5577C32.8027 37.8291 32.9957 38.0296 32.9957 38.2671C32.9957 38.5047 32.7952 38.7052 32.5502 38.7052Z" fill="#000102"/>
<path d="M30.8427 41.5411H12.7052C12.4602 41.5411 12.2672 41.3406 12.2672 41.1031C12.2672 40.8655 12.4677 40.665 12.7052 40.665H30.8427C31.0877 40.665 31.2807 40.8655 31.2807 41.1031C31.2807 41.3406 31.0802 41.5411 30.8427 41.5411Z" fill="#000102"/>
<path d="M27.873 44.3773H12.7052C12.4602 44.3773 12.2672 44.1768 12.2672 43.9393C12.2672 43.7017 12.4677 43.5012 12.7052 43.5012H27.873C28.118 43.5012 28.311 43.7017 28.311 43.9393C28.311 44.1768 28.118 44.3773 27.873 44.3773Z" fill="#000102"/>
</svg>
