<svg width="182" height="48" viewBox="0 0 182 48" fill="none" xmlns="http://www.w3.org/2000/svg">
<path d="M10.9706 5.15828H5.01988C2.80254 5.15828 1.00503 6.95579 1.00503 9.17314V41.7878C1.00503 44.0052 2.80254 45.8027 5.01988 45.8027H28.8294C31.0712 45.8027 32.8788 43.9667 32.8437 41.7251L32.3341 9.11041C32.2999 6.91779 30.5126 5.15828 28.3198 5.15828H22.0202V3.43537C22.0202 2.21873 21.0339 1.23244 19.8173 1.23244H13.1735C11.9569 1.23244 10.9706 2.21873 10.9706 3.43537V5.15828Z" stroke="#AAFD33" stroke-width="1.98995"/>
<path d="M47.2738 14.0478V12.3568H49.856C50.2978 12.3568 50.671 12.2883 50.9757 12.1512C51.2956 12.0141 51.5394 11.8236 51.7069 11.5799C51.8745 11.3209 51.9583 11.0086 51.9583 10.643C51.9583 10.0946 51.7755 9.68326 51.4099 9.40905C51.0443 9.13483 50.5263 8.99773 49.856 8.99773H48.2564V19.0065H50.2216C50.7243 19.0065 51.1738 18.9456 51.5698 18.8237C51.9659 18.6866 52.2782 18.4733 52.5067 18.1839C52.7505 17.8792 52.8724 17.4679 52.8724 16.9499C52.8724 16.6148 52.8038 16.3253 52.6667 16.0816C52.5296 15.8378 52.3392 15.6398 52.0954 15.4874C51.8517 15.3351 51.5698 15.2285 51.2499 15.1675C50.9452 15.0914 50.6025 15.0533 50.2216 15.0533H47.2738V12.951H50.6558C51.4327 12.951 52.1868 13.0348 52.9181 13.2023C53.6493 13.3699 54.312 13.6441 54.9061 14.025C55.5002 14.3906 55.9725 14.8628 56.3229 15.4417C56.6885 16.0054 56.8713 16.6909 56.8713 17.4983C56.8713 18.5647 56.6123 19.4254 56.0944 20.0805C55.5916 20.7356 54.8756 21.2231 53.9464 21.543C53.0171 21.8477 51.9202 22 50.6558 22H44.3946V6.00423H50.2673C51.3794 6.00423 52.3544 6.15657 53.1923 6.46125C54.0454 6.7507 54.7157 7.20011 55.2032 7.80947C55.7059 8.4036 55.9573 9.15768 55.9573 10.0717C55.9573 10.9096 55.7059 11.6256 55.2032 12.2197C54.7157 12.8139 54.0454 13.2709 53.1923 13.5908C52.3544 13.8955 51.3794 14.0478 50.2673 14.0478H47.2738ZM62.2003 18.9151L62.4745 15.9673H70.4038L70.6552 18.9151H62.2003ZM66.3821 11.877L64.1426 17.0413L64.3255 17.8868L62.3374 22H57.9728L66.3821 4.99878L74.8141 22H70.4267L68.5072 18.0468L68.6443 17.0642L66.3821 11.877ZM73.7362 9.45475V6.00423H86.3957V9.45475H81.9855V22H78.1236V9.45475H73.7362ZM87.6894 9.45475V6.00423H100.349V9.45475H95.9386V22H92.0768V9.45475H87.6894ZM106.549 14.7562H110.548L115.553 22H111.028L106.549 14.7562ZM102.55 6.00423H106.412V22H102.55V6.00423ZM104.973 9.27194V6.00423H108.377C109.748 6.00423 110.891 6.22513 111.805 6.66691C112.719 7.1087 113.412 7.72568 113.884 8.51785C114.357 9.29479 114.593 10.2012 114.593 11.2371C114.593 12.2578 114.357 13.1642 113.884 13.9564C113.412 14.7334 112.719 15.3427 111.805 15.7845C110.891 16.2263 109.748 16.4472 108.377 16.4472H104.973V13.4537H108.103C108.621 13.4537 109.063 13.3775 109.429 13.2252C109.809 13.0576 110.099 12.8215 110.297 12.5168C110.495 12.1969 110.594 11.816 110.594 11.3742C110.594 10.9325 110.495 10.5592 110.297 10.2545C110.099 9.93462 109.809 9.69088 109.429 9.5233C109.063 9.35573 108.621 9.27194 108.103 9.27194H104.973ZM120.357 22V18.8237H128.424V22H120.357ZM120.357 9.18053V6.00423H128.424V9.18053H120.357ZM120.357 15.1447V12.0369H127.967V15.1447H120.357ZM117.798 6.00423H121.5V22H117.798V6.00423ZM139.948 16.2187V13.248H148.037C148.114 14.5277 147.984 15.7236 147.649 16.8357C147.314 17.9477 146.796 18.9303 146.095 19.7834C145.394 20.6366 144.518 21.3069 143.467 21.7943C142.416 22.2666 141.212 22.5027 139.857 22.5027C138.577 22.5027 137.404 22.3047 136.338 21.9086C135.271 21.4973 134.35 20.9184 133.573 20.1719C132.796 19.4102 132.186 18.5114 131.745 17.4755C131.318 16.4243 131.105 15.2665 131.105 14.0021C131.105 12.7377 131.326 11.5951 131.767 10.5745C132.209 9.53853 132.834 8.65496 133.641 7.92372C134.449 7.19249 135.393 6.62883 136.475 6.23274C137.556 5.83666 138.729 5.63861 139.994 5.63861C141.121 5.63861 142.134 5.79857 143.033 6.11849C143.932 6.4384 144.724 6.88781 145.409 7.4667C146.11 8.03036 146.712 8.68543 147.215 9.4319L143.787 11.2143C143.421 10.5745 142.926 10.0489 142.302 9.63756C141.692 9.211 140.923 8.99773 139.994 8.99773C139.11 8.99773 138.295 9.19577 137.549 9.59185C136.817 9.98794 136.231 10.5592 135.789 11.3057C135.363 12.0369 135.149 12.9357 135.149 14.0021C135.149 15.0533 135.355 15.9673 135.766 16.7442C136.193 17.506 136.764 18.1001 137.48 18.5266C138.211 18.938 139.049 19.1436 139.994 19.1436C140.573 19.1436 141.098 19.0751 141.57 18.938C142.043 18.7856 142.446 18.58 142.782 18.321C143.117 18.0468 143.399 17.7345 143.627 17.3841C143.871 17.0185 144.061 16.63 144.198 16.2187H139.948ZM153.641 22V18.8237H161.708V22H153.641ZM153.641 9.18053V6.00423H161.708V9.18053H153.641ZM153.641 15.1447V12.0369H161.251V15.1447H153.641ZM151.082 6.00423H154.784V22H151.082V6.00423ZM176.34 6.00423H180.065V22.7998L169.005 12.9967V22H165.303V5.20444L176.34 15.0076V6.00423Z" fill="white"/>
<path d="M44.8889 41.2311V39.726H49.9977V41.2311H44.8889ZM44.8889 32.6056V31.1005H49.9977V32.6056H44.8889ZM44.8889 36.5421V35.0659H49.7082V36.5421H44.8889ZM43.8325 31.1005H45.5113V41.2311H43.8325V31.1005ZM56.2575 34.5739H58.0087L55.6208 37.8012L58.1534 41.2311H56.4023L54.7958 38.9445L53.2183 41.2311H51.4238L53.9709 37.8012L51.5685 34.5739H53.3631L54.7958 36.6579L56.2575 34.5739ZM58.6758 34.5739H62.4531V35.9487H58.6758V34.5739ZM59.7902 32.2583H61.3387V41.2311H59.7902V32.2583ZM66.8778 41.3759C66.2024 41.3759 65.6042 41.2311 65.0832 40.9417C64.5718 40.6522 64.1763 40.247 63.8965 39.726C63.6167 39.205 63.4768 38.5972 63.4768 37.9025C63.4768 37.1982 63.6167 36.5855 63.8965 36.0645C64.1859 35.5435 64.5911 35.1431 65.1121 34.8633C65.6331 34.5739 66.2458 34.4291 66.9501 34.4291C67.6545 34.4291 68.2526 34.5642 68.7447 34.8344C69.2368 35.1045 69.613 35.4953 69.8735 36.0066C70.1437 36.5083 70.2788 37.1162 70.2788 37.8301C70.2788 37.9073 70.274 37.9893 70.2643 38.0762C70.2643 38.163 70.2595 38.2257 70.2498 38.2643H64.403V37.1934H68.9184L68.4408 37.8591C68.4697 37.8012 68.4987 37.724 68.5276 37.6275C68.5662 37.5214 68.5855 37.4346 68.5855 37.367C68.5855 37.01 68.5131 36.7013 68.3684 36.4408C68.2333 36.1803 68.0404 35.9777 67.7895 35.8329C67.5483 35.6882 67.2637 35.6159 66.9357 35.6159C66.5401 35.6159 66.2024 35.7027 65.9226 35.8764C65.6428 36.05 65.4305 36.3009 65.2858 36.6289C65.1411 36.957 65.0639 37.3622 65.0543 37.8446C65.0543 38.327 65.1266 38.7371 65.2713 39.0748C65.4161 39.4028 65.6283 39.6537 65.9081 39.8273C66.1976 40.001 66.5449 40.0878 66.9501 40.0878C67.3747 40.0878 67.7461 40.001 68.0645 39.8273C68.3829 39.6537 68.6482 39.3883 68.8605 39.0313L70.2064 39.5813C69.8591 40.1795 69.4104 40.6281 68.8605 40.9272C68.3105 41.2263 67.6496 41.3759 66.8778 41.3759ZM76.5068 37.1789C76.5068 36.6868 76.4054 36.3154 76.2028 36.0645C76.0002 35.8137 75.6867 35.6882 75.2621 35.6882C74.9727 35.6882 74.717 35.7509 74.4951 35.8764C74.2732 35.9921 74.0995 36.1658 73.9741 36.3974C73.8487 36.6193 73.7859 36.8798 73.7859 37.1789V41.2311H72.2229V34.5739H73.7859V35.6014C73.9982 35.2058 74.2684 34.9115 74.5964 34.7186C74.9341 34.5256 75.3345 34.4291 75.7976 34.4291C76.5502 34.4291 77.1242 34.6607 77.5198 35.1238C77.9154 35.5773 78.1132 36.2044 78.1132 37.0052V41.2311H76.5068V37.1789ZM85.5689 29.9427H87.1464V41.2311H85.5689V29.9427ZM80.055 37.9025C80.055 37.1692 80.2045 36.5469 80.5036 36.0356C80.8027 35.5146 81.1983 35.119 81.6903 34.8488C82.1921 34.569 82.7275 34.4291 83.2968 34.4291C83.8564 34.4291 84.3436 34.569 84.7585 34.8488C85.183 35.1286 85.5159 35.529 85.7571 36.05C86.0079 36.5614 86.1334 37.1789 86.1334 37.9025C86.1334 38.6165 86.0079 39.234 85.7571 39.755C85.5159 40.276 85.183 40.6764 84.7585 40.9562C84.3436 41.236 83.8564 41.3759 83.2968 41.3759C82.7275 41.3759 82.1921 41.2408 81.6903 40.9706C81.1983 40.6908 80.8027 40.2904 80.5036 39.7694C80.2045 39.2484 80.055 38.6261 80.055 37.9025ZM81.6759 37.9025C81.6759 38.3463 81.7675 38.7274 81.9508 39.0458C82.1342 39.3642 82.3754 39.6054 82.6745 39.7694C82.9832 39.9335 83.3161 40.0155 83.6731 40.0155C83.9722 40.0155 84.2664 39.9335 84.5559 39.7694C84.855 39.6054 85.0962 39.369 85.2795 39.0603C85.4725 38.7419 85.5689 38.356 85.5689 37.9025C85.5689 37.449 85.4725 37.0679 85.2795 36.7592C85.0962 36.4408 84.855 36.1996 84.5559 36.0356C84.2664 35.8715 83.9722 35.7895 83.6731 35.7895C83.3161 35.7895 82.9832 35.8715 82.6745 36.0356C82.3754 36.1996 82.1342 36.4408 81.9508 36.7592C81.7675 37.0776 81.6759 37.4587 81.6759 37.9025ZM92.4305 41.3759C91.7552 41.3759 91.157 41.2311 90.636 40.9417C90.1246 40.6522 89.729 40.247 89.4492 39.726C89.1694 39.205 89.0295 38.5972 89.0295 37.9025C89.0295 37.1982 89.1694 36.5855 89.4492 36.0645C89.7387 35.5435 90.1439 35.1431 90.6649 34.8633C91.1859 34.5739 91.7986 34.4291 92.5029 34.4291C93.2072 34.4291 93.8054 34.5642 94.2975 34.8344C94.7895 35.1045 95.1658 35.4953 95.4263 36.0066C95.6965 36.5083 95.8315 37.1162 95.8315 37.8301C95.8315 37.9073 95.8267 37.9893 95.8171 38.0762C95.8171 38.163 95.8122 38.2257 95.8026 38.2643H89.9558V37.1934H94.4711L93.9935 37.8591C94.0225 37.8012 94.0514 37.724 94.0804 37.6275C94.119 37.5214 94.1383 37.4346 94.1383 37.367C94.1383 37.01 94.0659 36.7013 93.9212 36.4408C93.7861 36.1803 93.5931 35.9777 93.3423 35.8329C93.1011 35.6882 92.8165 35.6159 92.4884 35.6159C92.0928 35.6159 91.7552 35.7027 91.4754 35.8764C91.1956 36.05 90.9833 36.3009 90.8386 36.6289C90.6938 36.957 90.6167 37.3622 90.607 37.8446C90.607 38.327 90.6794 38.7371 90.8241 39.0748C90.9688 39.4028 91.1811 39.6537 91.4609 39.8273C91.7503 40.001 92.0977 40.0878 92.5029 40.0878C92.9274 40.0878 93.2989 40.001 93.6173 39.8273C93.9357 39.6537 94.201 39.3883 94.4132 39.0313L95.7592 39.5813C95.4118 40.1795 94.9632 40.6281 94.4132 40.9272C93.8633 41.2263 93.2024 41.3759 92.4305 41.3759ZM102.783 29.9427H104.361V41.2311H102.783V29.9427ZM97.2692 37.9025C97.2692 37.1692 97.4187 36.5469 97.7178 36.0356C98.0169 35.5146 98.4125 35.119 98.9045 34.8488C99.4062 34.569 99.9417 34.4291 100.511 34.4291C101.071 34.4291 101.558 34.569 101.973 34.8488C102.397 35.1286 102.73 35.529 102.971 36.05C103.222 36.5614 103.348 37.1789 103.348 37.9025C103.348 38.6165 103.222 39.234 102.971 39.755C102.73 40.276 102.397 40.6764 101.973 40.9562C101.558 41.236 101.071 41.3759 100.511 41.3759C99.9417 41.3759 99.4062 41.2408 98.9045 40.9706C98.4125 40.6908 98.0169 40.2904 97.7178 39.7694C97.4187 39.2484 97.2692 38.6261 97.2692 37.9025ZM98.8901 37.9025C98.8901 38.3463 98.9817 38.7274 99.165 39.0458C99.3484 39.3642 99.5896 39.6054 99.8887 39.7694C100.197 39.9335 100.53 40.0155 100.887 40.0155C101.186 40.0155 101.481 39.9335 101.77 39.7694C102.069 39.6054 102.31 39.369 102.494 39.0603C102.687 38.7419 102.783 38.356 102.783 37.9025C102.783 37.449 102.687 37.0679 102.494 36.7592C102.31 36.4408 102.069 36.1996 101.77 36.0356C101.481 35.8715 101.186 35.7895 100.887 35.7895C100.53 35.7895 100.197 35.8715 99.8887 36.0356C99.5896 36.1996 99.3484 36.4408 99.165 36.7592C98.9817 37.0776 98.8901 37.4587 98.8901 37.9025ZM111.672 31.1005H113.379V39.6971H117.403V41.2311H111.672V31.1005ZM118.903 31.9254C118.903 31.6553 119 31.4285 119.193 31.2452C119.395 31.0619 119.627 30.9702 119.888 30.9702C120.167 30.9702 120.399 31.0619 120.582 31.2452C120.775 31.4285 120.872 31.6553 120.872 31.9254C120.872 32.1859 120.775 32.4126 120.582 32.6056C120.399 32.7889 120.167 32.8806 119.888 32.8806C119.627 32.8806 119.395 32.7889 119.193 32.6056C119 32.4126 118.903 32.1859 118.903 31.9254ZM119.121 34.5739H120.655V41.2311H119.121V34.5739ZM122.708 34.5739H126.529V35.9487H122.708V34.5739ZM126.355 31.6215C126.258 31.4671 126.147 31.3658 126.022 31.3176C125.906 31.2693 125.786 31.2452 125.66 31.2452C125.515 31.2452 125.39 31.2838 125.284 31.361C125.187 31.4382 125.11 31.5636 125.052 31.7373C124.994 31.9109 124.966 32.1377 124.966 32.4175V41.2311H123.431V32.1136C123.431 31.5925 123.513 31.1632 123.677 30.8255C123.851 30.4782 124.097 30.2177 124.416 30.044C124.734 29.8607 125.125 29.769 125.588 29.769C125.848 29.769 126.075 29.8028 126.268 29.8703C126.461 29.9379 126.625 30.0199 126.76 30.1164C126.905 30.2128 127.016 30.3093 127.093 30.4058L126.355 31.6215ZM131.071 41.3759C130.395 41.3759 129.797 41.2311 129.276 40.9417C128.765 40.6522 128.369 40.247 128.089 39.726C127.81 39.205 127.67 38.5972 127.67 37.9025C127.67 37.1982 127.81 36.5855 128.089 36.0645C128.379 35.5435 128.784 35.1431 129.305 34.8633C129.826 34.5739 130.439 34.4291 131.143 34.4291C131.847 34.4291 132.445 34.5642 132.938 34.8344C133.43 35.1045 133.806 35.4953 134.066 36.0066C134.337 36.5083 134.472 37.1162 134.472 37.8301C134.472 37.9073 134.467 37.9893 134.457 38.0762C134.457 38.163 134.452 38.2257 134.443 38.2643H128.596V37.1934H133.111L132.634 37.8591C132.663 37.8012 132.692 37.724 132.72 37.6275C132.759 37.5214 132.778 37.4346 132.778 37.367C132.778 37.01 132.706 36.7013 132.561 36.4408C132.426 36.1803 132.233 35.9777 131.982 35.8329C131.741 35.6882 131.457 35.6159 131.128 35.6159C130.733 35.6159 130.395 35.7027 130.115 35.8764C129.836 36.05 129.623 36.3009 129.479 36.6289C129.334 36.957 129.257 37.3622 129.247 37.8446C129.247 38.327 129.319 38.7371 129.464 39.0748C129.609 39.4028 129.821 39.6537 130.101 39.8273C130.39 40.001 130.738 40.0878 131.143 40.0878C131.567 40.0878 131.939 40.001 132.257 39.8273C132.576 39.6537 132.841 39.3883 133.053 39.0313L134.399 39.5813C134.052 40.1795 133.603 40.6281 133.053 40.9272C132.503 41.2263 131.842 41.3759 131.071 41.3759ZM141.424 40.493C141.424 40.2133 141.52 39.9769 141.713 39.7839C141.916 39.5813 142.157 39.48 142.437 39.48C142.736 39.48 142.982 39.5813 143.175 39.7839C143.368 39.9769 143.465 40.2133 143.465 40.493C143.465 40.7632 143.368 40.9996 143.175 41.2022C142.982 41.4048 142.736 41.5061 142.437 41.5061C142.157 41.5061 141.916 41.4048 141.713 41.2022C141.52 40.9996 141.424 40.7632 141.424 40.493ZM146.342 40.493C146.342 40.2133 146.439 39.9769 146.632 39.7839C146.834 39.5813 147.076 39.48 147.355 39.48C147.655 39.48 147.901 39.5813 148.093 39.7839C148.286 39.9769 148.383 40.2133 148.383 40.493C148.383 40.7632 148.286 40.9996 148.093 41.2022C147.901 41.4048 147.655 41.5061 147.355 41.5061C147.076 41.5061 146.834 41.4048 146.632 41.2022C146.439 40.9996 146.342 40.7632 146.342 40.493ZM151.261 40.493C151.261 40.2133 151.357 39.9769 151.55 39.7839C151.753 39.5813 151.994 39.48 152.274 39.48C152.573 39.48 152.819 39.5813 153.012 39.7839C153.205 39.9769 153.301 40.2133 153.301 40.493C153.301 40.7632 153.205 40.9996 153.012 41.2022C152.819 41.4048 152.573 41.5061 152.274 41.5061C151.994 41.5061 151.753 41.4048 151.55 41.2022C151.357 40.9996 151.261 40.7632 151.261 40.493Z" fill="white"/>
</svg>
