<svg width="34" height="34" viewBox="0 0 34 34" fill="none" xmlns="http://www.w3.org/2000/svg">
<circle cx="17.2787" cy="17.2788" r="15.9107" stroke="black" stroke-width="1.17857"/>
<path d="M11.6708 22.7023C11.296 22.7023 10.9833 22.577 10.7327 22.3264C10.4821 22.0758 10.3565 21.7628 10.356 21.3874V12.6259C10.356 12.2511 10.4815 11.9384 10.7327 11.6878C10.9838 11.4372 11.2963 11.3116 11.67 11.311H23.6878C24.0621 11.311 24.3745 11.4366 24.6251 11.6878C24.8758 11.9389 25.0013 12.2516 25.0019 12.6259V21.3882C25.0019 21.7625 24.8763 22.0752 24.6251 22.3264C24.374 22.5775 24.0616 22.7028 23.6878 22.7023H11.6708ZM17.6789 17.1011L24.1882 12.8448L23.9376 12.1247L17.6789 16.193L11.4202 12.1247L11.1696 12.8448L17.6789 17.1011Z" fill="black"/>
</svg>
